<svg width="48" height="48" viewBox="0 0 48 48" fill="none" xmlns="http://www.w3.org/2000/svg">
<path d="M25.4919 47.9987C25.2791 47.9985 25.075 47.9142 24.9244 47.7637C24.7739 47.6132 24.6893 47.4089 24.6891 47.1961V40.7748C24.6893 40.562 24.7739 40.3577 24.9244 40.2072C25.075 40.0567 25.2791 39.9723 25.4919 39.9722V32.4105C25.4933 31.151 25.8235 29.9125 26.45 28.8198C27.0764 27.7271 27.9774 26.8169 29.0637 26.1794L36.1572 22.021C36.207 21.9949 36.2581 21.9724 36.3104 21.9516L39.842 11.7894C40.0516 10.988 40.5575 10.2954 41.2576 9.85274C41.9577 9.41005 42.7998 9.2503 43.6136 9.40454C44.3335 9.55812 44.9793 9.95236 45.4441 10.5231C45.9089 11.0939 46.1648 11.8059 46.1694 12.542C46.1687 12.6844 46.1597 12.8269 46.1425 12.9683C46.635 13.2483 47.0449 13.6531 47.331 14.1421C47.617 14.6311 47.7691 15.1873 47.7718 15.7539C47.7723 16.035 47.7354 16.3147 47.662 16.586L44.1771 29.6134C43.9772 30.3764 43.5522 31.0617 42.9574 31.5796L37.5294 36.4045C37.2782 36.6321 37.0772 36.9102 36.9395 37.22C36.8019 37.5298 36.7304 37.8647 36.7299 38.2038V39.9696C36.8351 39.9697 36.9393 39.9908 37.0365 40.0312C37.1337 40.0717 37.2219 40.1313 37.2962 40.2059C37.3705 40.2805 37.4293 40.3693 37.4693 40.4666C37.5093 40.564 37.5298 40.6683 37.5294 40.7735V47.1948C37.5298 47.3 37.5093 47.4044 37.4693 47.5017C37.4293 47.5991 37.3705 47.6878 37.2962 47.7624C37.2219 47.837 37.1337 47.8954 37.0365 47.9358C36.9393 47.9762 36.8351 47.9973 36.7299 47.9974L25.4919 47.9987ZM26.2948 46.3934H35.927V41.5788H26.2948V46.3934ZM36.96 23.4131L29.8731 27.5625C29.0306 28.0621 28.3321 28.771 27.8456 29.6211C27.3592 30.4713 27.1015 31.4336 27.0976 32.4131V39.9747H35.1242V38.2076C35.1256 37.6414 35.2455 37.0821 35.4762 36.5651C35.7069 36.048 36.0432 35.5856 36.4636 35.2063L41.8981 30.3814C42.2475 30.0683 42.4987 29.6618 42.6214 29.2089L46.1135 16.1751C46.1523 16.0398 46.1714 15.8997 46.1701 15.759C46.1685 15.3908 46.0406 15.0335 45.8077 14.7483C45.5747 14.4631 45.251 14.2674 44.8905 14.1922C44.4696 14.1274 44.0398 14.2229 43.6865 14.4606C43.3332 14.6983 43.0823 15.0596 42.9837 15.4739L40.5048 23.1254L40.5514 23.1973C40.9753 23.9341 41.0915 24.8091 40.875 25.631C40.7669 26.0396 40.5784 26.4225 40.3204 26.7573C40.0624 27.0921 39.7401 27.3719 39.3725 27.5805L34.7744 30.2389C34.5902 30.3337 34.3768 30.3542 34.1779 30.2967C33.9789 30.2391 33.8096 30.1079 33.7045 29.9294C33.6014 29.7496 33.5716 29.5372 33.6212 29.336C33.6708 29.1348 33.796 28.9606 33.9709 28.8493L38.569 26.1896C38.9392 25.9789 39.2111 25.6305 39.3252 25.22C39.4295 24.8076 39.3711 24.3718 39.1621 24.0013C39.0568 23.8181 38.9163 23.6574 38.7487 23.5287C38.5812 23.3999 38.3898 23.3046 38.1856 23.25C38.0496 23.2143 37.9095 23.1961 37.7688 23.1961C37.4847 23.1946 37.2054 23.27 36.96 23.4131ZM41.3747 12.2646L38.1258 21.6229C38.4978 21.6637 38.8605 21.7661 39.1989 21.9259L41.4411 15.0167C41.6225 14.323 42.0258 13.7082 42.5894 13.265C43.1531 12.8217 43.8461 12.574 44.5631 12.5612V12.5445C44.561 12.1769 44.4333 11.8214 44.2012 11.5364C43.969 11.2514 43.6464 11.0541 43.2868 10.9777C43.2012 10.965 43.1149 10.9598 43.0284 10.9598C42.6462 10.9601 42.2754 11.089 41.9754 11.3258C41.6754 11.5625 41.4638 11.893 41.3747 12.2646ZM11.0453 47.9987C10.8324 47.9985 10.6283 47.9142 10.4778 47.7637C10.3272 47.6132 10.2426 47.4089 10.2424 47.1961V40.7748C10.2426 40.562 10.3272 40.3577 10.4778 40.2072C10.6283 40.0567 10.8324 39.9723 11.0453 39.9722V38.2051C11.043 37.865 10.9696 37.5299 10.8296 37.22C10.6896 36.9102 10.4862 36.6322 10.2325 36.4058L4.81512 31.5848C4.22095 31.0619 3.79627 30.3738 3.5954 29.6083L0.103231 16.5899C0.0356068 16.3164 0.000950932 16.0355 0 15.7539C0.00272862 15.1873 0.154793 14.6311 0.440858 14.1421C0.726923 13.6531 1.13687 13.2483 1.62937 12.9683C1.61339 12.8275 1.60572 12.6862 1.60636 12.5445C1.60938 11.8085 1.86428 11.0954 2.32868 10.5244C2.79308 9.95341 3.43896 9.55872 4.1589 9.40582C4.98304 9.25339 5.83429 9.42149 6.53938 9.87457C7.24447 10.3277 7.7504 11.0316 7.95419 11.8446L11.4628 21.9503C11.5095 21.9734 11.566 21.9902 11.616 22.0158L18.7095 26.1807C19.7954 26.8187 20.696 27.7297 21.3224 28.8223C21.9488 29.915 22.2793 31.1524 22.2812 32.4118V39.9735C22.4941 39.9736 22.6982 40.0579 22.8487 40.2085C22.9992 40.359 23.0839 40.5632 23.0841 40.7761V47.1973C23.0839 47.4102 22.9992 47.6145 22.8487 47.765C22.6982 47.9155 22.4941 47.9998 22.2812 48L11.0453 47.9987ZM11.8481 46.3934H21.477V41.5788H11.8475L11.8481 46.3934ZM2.87211 14.1896C2.51406 14.2674 2.19333 14.4646 1.96302 14.7496C1.73271 15.0345 1.60664 15.39 1.6057 15.7564C1.60287 15.8966 1.61857 16.0364 1.65238 16.1725L5.15112 29.1999C5.27004 29.6563 5.52178 30.067 5.87441 30.3801L11.3024 35.2051C11.7251 35.5828 12.0634 36.0452 12.2953 36.5625C12.5273 37.0798 12.6475 37.6394 12.6483 38.2063V39.9735H20.6749V32.4118C20.6716 31.4326 20.4141 30.471 19.9276 29.6211C19.4411 28.7713 18.7422 28.0624 17.8994 27.5638L10.8026 23.4054C10.6201 23.3002 10.4187 23.2322 10.2098 23.2051C10.0009 23.1779 9.7887 23.1912 9.58536 23.2461C9.38201 23.3011 9.19152 23.3961 9.02478 23.5248C8.85805 23.6536 8.71836 23.8133 8.6137 23.9961C8.40459 24.3667 8.34731 24.8043 8.45391 25.2162C8.5084 25.4202 8.60307 25.6117 8.73234 25.7787C8.86162 25.9457 9.02292 26.0845 9.20679 26.1884L13.8049 28.8442C13.9798 28.9554 14.105 29.1297 14.1546 29.3309C14.2042 29.5321 14.1743 29.7458 14.0712 29.9255C13.9672 30.1051 13.7979 30.2377 13.5985 30.2954C13.3992 30.3531 13.1853 30.3313 13.0014 30.235L8.40329 27.5792C8.03586 27.3702 7.71394 27.09 7.45648 26.7547C7.19901 26.4194 7.01121 26.0361 6.90411 25.6271C6.68484 24.8058 6.79974 23.9303 7.22368 23.1935L7.27036 23.1203L4.80789 15.515C4.72155 15.1336 4.50837 14.7924 4.2032 14.5479C3.89803 14.3034 3.51893 14.1702 3.12789 14.1691C3.04201 14.1697 2.95629 14.1763 2.87145 14.1896H2.87211ZM4.47781 10.9816C4.11904 11.058 3.79731 11.2553 3.56625 11.5402C3.3352 11.8251 3.20879 12.1803 3.20811 12.5471V12.5612C3.93132 12.5797 4.62884 12.8327 5.19511 13.283C5.76138 13.7332 6.16558 14.3561 6.34653 15.0565L8.57228 21.9298C8.90999 21.7674 9.27286 21.6637 9.64537 21.6229L6.42017 12.3211C6.33537 11.9365 6.12199 11.592 5.81525 11.345C5.50851 11.0981 5.12673 10.9631 4.73293 10.9623C4.64736 10.9617 4.56187 10.967 4.47715 10.979L4.47781 10.9816ZM23.3195 24.4854L12.5306 13.7016C11.028 12.1962 10.1841 10.1561 10.1841 8.02911C10.1841 5.90211 11.028 3.86203 12.5306 2.35659C13.2754 1.60951 14.1603 1.01698 15.1346 0.612586C16.109 0.208189 17.1535 -0.000116163 18.2084 4.86002e-08C19.2633 -0.000116163 20.3079 0.208189 21.2822 0.612586C22.2566 1.01698 23.1415 1.60951 23.8862 2.35659V2.35274C24.6318 1.60692 25.5169 1.01498 26.4911 0.611301C27.4653 0.207627 28.5095 4.73121e-05 29.5641 4.86002e-08C30.6186 4.73121e-05 31.6628 0.207627 32.637 0.611301C33.6112 1.01498 34.4963 1.60692 35.2419 2.35274C36.7445 3.85894 37.5884 5.90023 37.5884 8.02783C37.5884 10.1554 36.7445 12.1954 35.2419 13.7016L24.4583 24.4854C24.3837 24.5601 24.2952 24.6185 24.1977 24.6588C24.1002 24.6991 23.9957 24.7207 23.8902 24.7205C23.7843 24.721 23.6793 24.7004 23.5813 24.6601C23.4833 24.6198 23.3943 24.5604 23.3195 24.4854ZM18.2117 1.60274C16.9418 1.60292 15.7005 1.98028 14.6443 2.68536C13.5882 3.39044 12.7646 4.39189 12.2775 5.56464C11.7915 6.73762 11.6641 8.02819 11.9114 9.27354C12.1587 10.5189 12.7696 11.6629 13.6669 12.5612L23.8856 22.78L34.1043 12.5612C35.307 11.3576 35.9825 9.72546 35.9825 8.02397C35.9825 6.32248 35.307 4.69163 34.1043 3.48801C33.5091 2.89127 32.8019 2.41764 32.0234 2.09461C31.2448 1.77157 30.4102 1.6053 29.5673 1.60531C28.7237 1.6048 27.8882 1.77028 27.1089 2.09332C26.3296 2.41637 25.6216 2.89081 25.0258 3.48801L24.4524 4.05693C24.3781 4.13143 24.2898 4.18998 24.1926 4.23031C24.0954 4.27063 23.9912 4.29195 23.8859 4.29195C23.7807 4.29195 23.6765 4.27063 23.5793 4.23031C23.4821 4.18998 23.3938 4.13143 23.3195 4.05693L22.7494 3.48801C22.1584 2.89202 21.4554 2.41898 20.6808 2.09589C19.9062 1.7728 19.0753 1.60586 18.236 1.60531L18.2117 1.60274ZM22.2799 16.6926C22.067 16.6925 21.8629 16.6081 21.7124 16.4576C21.5619 16.3071 21.4772 16.1029 21.477 15.89V13.4807H19.0711C18.8582 13.4806 18.6541 13.3962 18.5036 13.2457C18.3531 13.0952 18.2685 12.891 18.2683 12.6781V9.46875C18.2685 9.25587 18.3531 9.05164 18.5036 8.90111C18.6541 8.75059 18.8582 8.66627 19.0711 8.6661H21.477V6.25685C21.4772 6.04397 21.5619 5.83974 21.7124 5.68921C21.8629 5.53869 22.067 5.45437 22.2799 5.4542H25.4919C25.7048 5.45437 25.9089 5.53869 26.0595 5.68921C26.21 5.83974 26.2946 6.04397 26.2948 6.25685V8.6661H28.7007C28.8062 8.66584 28.9107 8.6862 29.0083 8.72646C29.1058 8.76671 29.1944 8.82523 29.269 8.89983C29.3436 8.97443 29.4027 9.06301 29.443 9.16053C29.4832 9.25805 29.5038 9.36325 29.5036 9.46875V12.6781C29.5038 12.7836 29.4832 12.8875 29.443 12.985C29.4027 13.0825 29.3436 13.1711 29.269 13.2457C29.1944 13.3203 29.1058 13.3801 29.0083 13.4204C28.9107 13.4606 28.8062 13.481 28.7007 13.4807H26.2948V15.89C26.2946 16.1029 26.21 16.3071 26.0595 16.4576C25.9089 16.6081 25.7048 16.6925 25.4919 16.6926H22.2799ZM19.874 11.878H22.2799C22.3852 11.8777 22.4895 11.8983 22.5868 11.9384C22.6842 11.9784 22.7727 12.0374 22.8472 12.1117C22.9218 12.1861 22.981 12.2752 23.0214 12.3724C23.0618 12.4697 23.0827 12.5728 23.0827 12.6781V15.0873H24.6884V12.6781C24.6885 12.5728 24.7094 12.4697 24.7498 12.3724C24.7902 12.2752 24.8494 12.1861 24.9239 12.1117C24.9985 12.0374 25.087 11.9784 25.1844 11.9384C25.2817 11.8983 25.386 11.8777 25.4913 11.878H27.9005V10.274H25.4913C25.3858 10.2739 25.2813 10.2528 25.1839 10.2123C25.0864 10.1719 24.9979 10.1123 24.9233 10.0377C24.8488 9.963 24.7896 9.87449 24.7493 9.77697C24.709 9.67945 24.6884 9.57427 24.6884 9.46875V7.06079H23.0827V9.46875C23.0828 9.57427 23.0621 9.67945 23.0218 9.77697C22.9815 9.87449 22.9224 9.963 22.8479 10.0377C22.7733 10.1123 22.6848 10.1719 22.5873 10.2123C22.4899 10.2528 22.3854 10.2739 22.2799 10.274H19.874V11.878Z" fill="url(#paint0_linear)"/>
<defs>
<linearGradient id="paint0_linear" x1="23.8859" y1="0" x2="23.8859" y2="48" gradientUnits="userSpaceOnUse">
<stop offset="0.13" stop-color="#00A9ED"/>
<stop offset="1" stop-color="#65106B"/>
</linearGradient>
</defs>
</svg>
