<svg width="246" height="222" viewBox="0 0 246 222" fill="none" xmlns="http://www.w3.org/2000/svg">
<path d="M54.5885 180.965C48.3235 173.346 42.7365 165.176 37.8933 156.55H37.8966L37.8311 156.438C39.2076 155.309 44.4265 150.419 41.0279 143.598L40.8148 143.169L40.4163 143.427C36.1025 146.217 35.6653 150.307 36.0206 153.168C34.8204 150.941 33.6248 148.616 32.462 146.197C31.9 145.027 31.3396 143.821 30.7806 142.58L30.837 142.565L30.7839 142.446C32.2758 141.476 37.9877 137.199 35.3454 130.04L35.179 129.59L34.7549 129.802C30.0183 132.168 29.2389 136.371 29.3438 139.272C27.9902 136.054 26.6885 132.641 25.4994 129.064C27.1722 128.284 33.3108 124.873 31.7082 117.464L31.6072 116.997L31.1582 117.145C26.0808 118.817 24.7482 122.942 24.4683 125.834C23.451 122.487 22.551 119.014 21.8044 115.447C23.5329 114.786 29.8853 111.829 28.8063 104.327L28.7408 103.852L28.2819 103.968C23.3678 105.2 21.6596 108.87 21.0841 111.691C20.4739 108.178 20.0502 104.634 19.815 101.074C21.6504 100.734 28.3875 98.971 28.6444 91.4114L28.6602 90.9317L28.1895 90.961C22.9679 91.2906 20.658 94.8109 19.6479 97.5205C19.5133 92.8508 19.7641 88.1778 20.3978 83.5509C22.159 83.5115 29.2193 82.8837 30.6155 75.3615L30.7026 74.8898L30.232 74.8464C25.3008 74.3927 22.5222 77.1743 21.0487 79.6143C21.6005 76.6991 22.3215 73.8197 23.2078 70.9912C24.2264 70.2846 30.4654 65.5781 27.2646 58.2053L27.0752 57.7656L26.6629 58.0012C19.7383 61.9678 22.0017 69.5814 22.3898 70.7257C21.4857 73.6128 20.7515 76.5522 20.1913 79.5283C19.6217 76.7173 17.9285 73.1023 13.0884 71.8379L12.6296 71.7185L12.5562 72.1929C11.3986 79.7498 17.8453 82.7563 19.4997 83.3975L19.4716 83.5249L19.5299 83.5282C18.9393 87.8719 18.6837 92.2561 18.7656 96.6404C18.139 94.9686 17.0553 93.5144 15.6426 92.4496C14.2299 91.3848 12.5473 90.7539 10.7936 90.6314L10.3243 90.584V91.0644C10.3046 98.7134 17.1256 100.69 18.8554 101.068L18.8462 101.198L18.9616 101.187C19.1947 104.666 19.6061 108.13 20.1939 111.565C19.3034 109.954 17.9681 108.645 16.3533 107.799C14.7386 106.954 12.9155 106.609 11.1102 106.808L10.6395 106.847L10.7228 107.319C12.0482 114.852 19.113 115.552 20.8743 115.608L20.8881 115.741L20.9857 115.713C21.6412 118.839 22.4167 121.889 23.2799 124.846C22.2557 123.44 20.8643 122.356 19.2642 121.717C17.6641 121.077 15.9196 120.908 14.2296 121.228L13.7629 121.301L13.8803 121.768C15.5976 128.656 21.8418 129.307 24.1353 129.307C24.3143 129.307 24.4585 129.303 24.5863 129.298L24.6132 129.42L24.7063 129.385C25.7865 132.632 26.9579 135.749 28.1803 138.705C26.9711 137.413 25.4242 136.499 23.7218 136.072C22.0195 135.644 20.2326 135.721 18.5716 136.292L18.1199 136.432L18.2989 136.876C20.3997 142.058 24.7449 142.991 27.6022 142.991C28.3831 142.993 29.1625 142.923 29.9311 142.783C30.518 144.093 31.108 145.365 31.701 146.6C32.7969 148.879 33.9204 151.07 35.0531 153.184C33.7071 151.967 32.0412 151.177 30.2602 150.911C28.4792 150.644 26.6605 150.913 25.0275 151.684L24.5942 151.873L24.8203 152.294C25.6134 153.882 26.8348 155.207 28.3414 156.114C29.848 157.021 31.5773 157.471 33.3266 157.413C34.5824 157.409 35.8314 157.223 37.0359 156.861L37.0897 156.98L37.131 156.951C42.0089 165.639 47.6362 173.869 53.9462 181.542C54.0213 181.628 54.1273 181.681 54.2406 181.688C54.3539 181.695 54.4654 181.656 54.5505 181.58C54.6356 181.503 54.6874 181.396 54.6944 181.28C54.7014 181.165 54.6631 181.051 54.5879 180.965H54.5885ZM30.9662 118.134C32.0615 124.485 26.9579 127.43 25.2929 128.209C25.114 126.353 25.0307 120.381 30.9662 118.134ZM28.0217 104.94C28.668 111.355 23.3678 113.921 21.6556 114.579C21.6065 112.711 21.9421 106.751 28.0217 104.94ZM27.7595 91.8724C27.2705 98.2951 21.6189 99.8577 19.8098 100.195C20.108 98.3645 21.5403 92.5477 27.7595 91.8724ZM29.176 75.6697C29.3399 75.6697 29.5038 75.6731 29.6722 75.6811C28.2302 81.9616 22.4003 82.6295 20.5688 82.6829C21.105 80.9481 23.2275 75.6697 29.1767 75.6697H29.176ZM34.7037 130.811C36.6735 136.933 32.0451 140.585 30.5027 141.602C30.0865 139.795 29.2167 133.862 34.7037 130.811ZM26.6668 59.0127C28.9748 65.0176 24.5444 68.9315 23.0656 70.0324C22.5281 68.249 21.284 62.4135 26.6668 59.0127ZM13.3388 72.8161C19.4014 74.6843 19.6807 80.6512 19.6145 82.5154C17.9063 81.8415 12.6329 79.224 13.3388 72.8161ZM11.1888 91.5595C17.452 92.4716 18.6201 98.3124 18.8344 100.173C17.06 99.7516 11.4484 97.9201 11.1888 91.5595ZM11.6601 107.648C17.9705 107.407 20.1579 112.941 20.696 114.731C18.8744 114.639 13.0327 113.859 11.6601 107.648ZM14.8392 122.024C21.1378 121.322 23.6929 126.695 24.351 128.438C22.5156 128.497 16.6602 128.198 14.8392 122.024ZM19.2841 136.996C25.1985 135.445 28.4556 139.986 29.4834 141.772C29.511 141.839 29.5398 141.901 29.568 141.965C27.7438 142.272 21.9106 142.745 19.2834 136.996H19.2841ZM40.4759 144.433C43.0926 150.298 38.8857 154.441 37.4607 155.628C36.8531 153.878 35.3487 148.08 40.4759 144.433ZM25.8147 152.302C31.7377 150.022 35.5362 154.571 36.5987 156.092C34.8414 156.62 29.0947 157.819 25.8147 152.302Z" fill="#C7DBE4"/>
<path d="M186.411 180.964C192.676 173.346 198.263 165.175 203.107 156.549H203.103L203.169 156.438C201.792 155.308 196.573 150.418 199.972 143.597L200.185 143.169L200.584 143.426C204.897 146.217 205.335 150.307 204.979 153.168C206.179 150.941 207.375 148.615 208.538 146.197C209.1 145.026 209.66 143.821 210.219 142.58L210.162 142.564L210.215 142.446C208.723 141.475 203.01 137.199 205.653 130.039L205.82 129.59L206.244 129.802C210.98 132.167 211.76 136.371 211.655 139.272C213.008 136.054 214.31 132.64 215.499 129.063C213.826 128.283 207.688 124.872 209.29 117.463L209.391 116.996L209.84 117.144C214.918 118.817 216.25 122.941 216.53 125.833C217.548 122.486 218.448 119.014 219.194 115.446C217.466 114.785 211.113 111.828 212.192 104.327L212.258 103.852L212.717 103.967C217.634 105.2 219.338 108.87 219.916 111.69C220.526 108.177 220.95 104.633 221.185 101.073C219.349 100.733 212.612 98.9703 212.355 91.4107L212.34 90.931L212.81 90.9604C218.032 91.29 220.342 94.8102 221.352 97.5198C221.487 92.8503 221.236 88.1776 220.602 83.5509C218.841 83.5115 211.781 82.8837 210.384 75.3615L210.297 74.8898L210.768 74.8464C215.699 74.3927 218.478 77.1743 219.951 79.6143C219.399 76.6991 218.678 73.8197 217.792 70.9912C216.773 70.2846 210.535 65.5781 213.735 58.2053L213.925 57.7656L214.337 58.0012C221.262 61.9678 218.998 69.5814 218.61 70.7257C219.514 73.6128 220.248 76.5522 220.809 79.5283C221.378 76.7173 223.071 73.1023 227.911 71.8379L228.37 71.7185L228.444 72.1929C229.601 79.7498 223.155 82.7563 221.5 83.3975L221.528 83.5249L221.47 83.5282C222.061 87.8719 222.316 92.2561 222.234 96.6404C222.861 94.9686 223.945 93.5144 225.357 92.4496C226.77 91.3848 228.453 90.7539 230.206 90.6314L230.676 90.584V91.0644C230.695 98.7134 223.874 100.69 222.144 101.068L222.154 101.198L222.038 101.187C221.805 104.666 221.394 108.13 220.806 111.565C221.696 109.954 223.032 108.645 224.647 107.799C226.261 106.954 228.084 106.609 229.89 106.808L230.36 106.847L230.277 107.319C228.952 114.852 221.887 115.552 220.126 115.608L220.112 115.741L220.014 115.713C219.359 118.839 218.583 121.889 217.72 124.846C218.744 123.44 220.136 122.356 221.736 121.717C223.336 121.077 225.08 120.908 226.77 121.228L227.237 121.301L227.12 121.768C225.402 128.656 219.158 129.307 216.865 129.307C216.686 129.307 216.541 129.303 216.414 129.298L216.391 129.428L216.298 129.393C215.217 132.64 214.046 135.757 212.823 138.713C214.032 137.42 215.577 136.505 217.279 136.076C218.981 135.648 220.767 135.723 222.428 136.292L222.88 136.432L222.701 136.876C220.6 142.058 216.255 142.991 213.398 142.991C212.617 142.993 211.837 142.923 211.069 142.783C210.482 144.093 209.892 145.365 209.299 146.6C208.203 148.879 207.079 151.07 205.947 153.184C207.293 151.967 208.959 151.177 210.74 150.911C212.521 150.644 214.339 150.913 215.972 151.684L216.406 151.873L216.18 152.294C215.386 153.883 214.164 155.208 212.657 156.115C211.15 157.021 209.42 157.472 207.671 157.413C206.415 157.409 205.166 157.223 203.961 156.861L203.908 156.98L203.869 156.951C198.991 165.639 193.364 173.869 187.054 181.542C186.979 181.628 186.873 181.681 186.759 181.688C186.646 181.695 186.534 181.656 186.449 181.58C186.364 181.503 186.313 181.396 186.306 181.28C186.298 181.165 186.337 181.051 186.412 180.965L186.411 180.964ZM210.03 118.133C208.935 124.485 214.039 127.429 215.704 128.208C215.883 126.352 215.966 120.381 210.03 118.133ZM212.98 104.94C212.334 111.355 217.634 113.921 219.346 114.579C219.395 112.711 219.06 106.751 212.98 104.94ZM213.242 91.8724C213.731 98.2951 219.383 99.8577 221.192 100.195C220.894 98.3645 219.462 92.5477 213.242 91.8724ZM211.826 75.6697C211.662 75.6697 211.498 75.6731 211.33 75.6811C212.772 81.9616 218.602 82.6295 220.433 82.6829C219.897 80.9481 217.774 75.6697 211.825 75.6697H211.826ZM206.294 130.811C204.324 136.933 208.953 140.585 210.495 141.602C210.911 139.795 211.781 133.862 206.294 130.811ZM214.333 59.0127C212.025 65.0176 216.456 68.9315 217.934 70.0324C218.472 68.249 219.716 62.4135 214.333 59.0127ZM227.659 72.8161C221.596 74.6843 221.317 80.6512 221.383 82.5154C223.092 81.8415 228.365 79.224 227.659 72.8161ZM229.809 91.5595C223.546 92.4716 222.378 98.3124 222.163 100.173C223.938 99.7516 229.549 97.9201 229.809 91.5595ZM229.338 107.648C223.027 107.407 220.84 112.941 220.302 114.731C222.123 114.639 227.965 113.859 229.338 107.648ZM226.159 122.024C219.86 121.322 217.305 126.695 216.647 128.438C218.482 128.497 224.338 128.198 226.159 122.024ZM221.714 136.996C215.799 135.445 212.542 139.986 211.514 141.772C211.487 141.839 211.458 141.901 211.43 141.965C213.254 142.272 219.087 142.745 221.714 136.996H221.714ZM200.526 144.433C197.909 150.298 202.116 154.441 203.541 155.628C204.149 153.878 205.653 148.08 200.526 144.433ZM215.185 152.301C209.262 150.02 205.464 154.57 204.401 156.091C206.158 156.619 211.905 157.818 215.185 152.301Z" fill="#C7DBE4"/>
<path d="M44.8666 204.938C44.8666 204.938 35.7928 173.627 26.5222 160.734C17.2517 147.841 17.0177 127.912 32.084 126.79C47.1504 125.668 53.5125 148.408 57.6309 165.111C61.7493 181.814 61.2859 204.938 61.2859 204.938H44.8666Z" fill="#DBEFF6"/>
<path d="M57.3307 186.394C57.2639 186.35 57.1829 186.335 57.1053 186.352C57.0278 186.37 56.9601 186.417 56.9171 186.485L52.1852 193.981C51.1963 189.666 50.1888 185.618 49.1627 181.837L54.3706 172.17C54.4035 172.1 54.4088 172.019 54.3853 171.945C54.3618 171.871 54.3114 171.809 54.2443 171.771C54.1772 171.734 54.0986 171.724 54.0246 171.744C53.9505 171.763 53.8867 171.811 53.8462 171.877L48.9353 180.993C47.7141 176.511 46.4844 172.402 45.2757 168.654L49.7776 155.963C49.791 155.926 49.7971 155.886 49.7953 155.846C49.7936 155.806 49.7841 155.766 49.7674 155.73C49.7507 155.694 49.7271 155.661 49.6981 155.634C49.669 155.607 49.635 155.587 49.598 155.573C49.5233 155.546 49.4414 155.55 49.3697 155.584C49.298 155.618 49.2423 155.68 49.2145 155.755L44.9709 167.718C43.0628 161.875 41.2163 156.937 39.5507 152.867L42.5384 142.023C42.5501 141.984 42.554 141.943 42.5499 141.903C42.5458 141.863 42.5339 141.823 42.5147 141.788C42.4955 141.752 42.4695 141.721 42.4382 141.695C42.407 141.67 42.371 141.651 42.3326 141.64C42.2941 141.629 42.2539 141.626 42.2142 141.632C42.1746 141.637 42.1364 141.65 42.1018 141.67C42.0673 141.691 42.037 141.718 42.013 141.75C41.9889 141.783 41.9714 141.82 41.9616 141.859L39.1784 151.963C35.2343 142.47 32.3948 137.978 32.3351 137.884C32.29 137.821 32.2225 137.777 32.1467 137.763C32.0709 137.749 31.9926 137.765 31.9281 137.808C31.8636 137.851 31.8178 137.917 31.8003 137.994C31.7829 138.07 31.795 138.15 31.8343 138.218C31.894 138.311 34.7473 142.829 38.7031 152.38L29.1514 149.671C29.1131 149.658 29.0727 149.654 29.0327 149.658C28.9927 149.662 28.9538 149.674 28.9185 149.694C28.8832 149.713 28.852 149.74 28.827 149.772C28.8019 149.804 28.7835 149.84 28.7727 149.88C28.7619 149.919 28.759 149.96 28.7642 150.001C28.7694 150.042 28.7826 150.081 28.803 150.116C28.8233 150.151 28.8504 150.182 28.8827 150.206C28.915 150.231 28.9517 150.248 28.9908 150.258L38.9975 153.1C40.6676 157.183 42.5227 162.144 44.438 168.022L34.5329 163.069C34.4625 163.039 34.3834 163.037 34.312 163.065C34.2406 163.092 34.1822 163.147 34.1487 163.216C34.1153 163.286 34.1093 163.366 34.1319 163.441C34.1546 163.515 34.2043 163.577 34.2708 163.616L44.7048 168.834C45.9227 172.612 47.1628 176.759 48.3952 181.289L39.8811 177.989C39.8443 177.975 39.8052 177.968 39.766 177.969C39.7267 177.97 39.6881 177.979 39.6523 177.996C39.6164 178.012 39.5841 178.036 39.5572 178.065C39.5303 178.094 39.5092 178.128 39.4953 178.165C39.4814 178.203 39.4748 178.243 39.4759 178.282C39.4771 178.322 39.486 178.362 39.5021 178.398C39.5182 178.435 39.5412 178.468 39.5698 178.495C39.5984 178.522 39.632 178.544 39.6687 178.558L48.5911 182.016C49.6172 185.826 50.6306 189.902 51.6313 194.244L43.2109 190.73C43.1745 190.715 43.1355 190.707 43.0962 190.707C43.0568 190.708 43.0179 190.716 42.9816 190.731C42.9454 190.747 42.9124 190.769 42.8847 190.798C42.8571 190.826 42.8351 190.86 42.8202 190.897C42.8054 190.934 42.7978 190.974 42.798 191.014C42.7981 191.054 42.8061 191.093 42.8213 191.13C42.8365 191.167 42.8587 191.201 42.8866 191.229C42.9146 191.257 42.9477 191.279 42.9841 191.295L51.7958 194.972C52.4832 198.007 53.1566 201.172 53.816 204.467C53.8299 204.536 53.8667 204.598 53.9202 204.642C53.9737 204.686 54.0406 204.711 54.1097 204.711C54.1295 204.711 54.1493 204.709 54.1687 204.705C54.2072 204.697 54.2439 204.681 54.2765 204.659C54.3092 204.637 54.3371 204.608 54.3589 204.574C54.3806 204.541 54.3957 204.504 54.4032 204.464C54.4107 204.425 54.4105 204.385 54.4027 204.345C53.7437 201.032 53.0664 197.853 52.3707 194.809L57.4179 186.815C57.4608 186.747 57.4754 186.664 57.4586 186.585C57.4417 186.506 57.3948 186.438 57.3281 186.394" fill="#98DBF9"/>
<path d="M46.7667 206.471L33.7238 210.278C33.7238 210.278 1.00824 190.235 3.44703 176.404C5.88581 162.574 15.7089 160.021 23.9358 169.543C32.1628 179.065 46.7657 206.47 46.7657 206.47" fill="#DBEFF6"/>
<path d="M38.8188 198.855C38.7399 198.848 38.6612 198.872 38.5998 198.923C38.5384 198.974 38.4994 199.048 38.4912 199.128L37.9559 204.543C36.5059 202.467 35.0018 200.398 33.4824 198.369L34.3648 190.805C34.3715 190.764 34.3699 190.723 34.3603 190.683C34.3507 190.643 34.3331 190.605 34.3088 190.572C34.2845 190.539 34.2538 190.511 34.2187 190.491C34.1836 190.47 34.1447 190.457 34.1045 190.452C34.0643 190.448 34.0235 190.451 33.9846 190.463C33.9457 190.474 33.9096 190.494 33.8784 190.52C33.8472 190.546 33.8215 190.579 33.803 190.616C33.7844 190.652 33.7734 190.692 33.7705 190.734L32.9614 197.675C31.2018 195.343 29.4311 193.068 27.7102 190.909L28.44 181.927C28.4465 181.847 28.4212 181.767 28.3699 181.705C28.3185 181.644 28.2453 181.605 28.1662 181.599C28.0871 181.592 28.0087 181.618 27.9483 181.67C27.8878 181.723 27.8502 181.797 27.8437 181.878L27.1651 190.226C24.8211 187.301 22.5922 184.615 20.6324 182.298L21.4535 173.966C21.4574 173.926 21.4536 173.886 21.4423 173.848C21.431 173.809 21.4123 173.774 21.3874 173.743C21.3626 173.712 21.3319 173.686 21.2973 173.667C21.2626 173.648 21.2246 173.636 21.1855 173.632C21.1463 173.628 21.1068 173.632 21.0691 173.644C21.0314 173.655 20.9963 173.674 20.9659 173.699C20.9354 173.725 20.9101 173.756 20.8915 173.791C20.8729 173.827 20.8612 173.865 20.8573 173.905L20.0907 181.663C16.1728 177.053 13.4698 174.08 13.4046 174.008C13.3778 173.979 13.3456 173.955 13.3098 173.939C13.274 173.922 13.2354 173.913 13.196 173.911C13.1567 173.91 13.1175 173.916 13.0806 173.93C13.0438 173.944 13.01 173.966 12.9812 173.993C12.9523 174.02 12.9291 174.053 12.9127 174.089C12.8964 174.126 12.8872 174.165 12.8858 174.205C12.8844 174.245 12.8907 174.285 12.9045 174.323C12.9182 174.36 12.939 174.394 12.9658 174.424C13.0319 174.496 15.7665 177.503 19.7194 182.158L11.5075 183.146C11.4681 183.15 11.43 183.162 11.3953 183.182C11.3605 183.201 11.3299 183.227 11.3052 183.259C11.2805 183.29 11.2622 183.326 11.2513 183.365C11.2404 183.404 11.2372 183.444 11.2418 183.484C11.2465 183.524 11.2589 183.563 11.2783 183.598C11.2977 183.633 11.3238 183.664 11.355 183.689C11.3863 183.714 11.422 183.732 11.4602 183.742C11.4984 183.753 11.5382 183.756 11.5775 183.75L20.196 182.712C22.177 185.053 24.4337 187.775 26.8022 190.734L16.6733 191.458C16.6339 191.46 16.5953 191.471 16.5598 191.488C16.5242 191.506 16.4925 191.531 16.4665 191.561C16.4404 191.591 16.4205 191.627 16.4078 191.665C16.3952 191.703 16.3901 191.743 16.3929 191.783C16.3957 191.824 16.4062 191.863 16.4239 191.899C16.4416 191.935 16.4662 191.967 16.4962 191.993C16.5261 192.019 16.5609 192.039 16.5985 192.052C16.6361 192.064 16.6757 192.069 16.7152 192.066L27.2612 191.313C29.0061 193.501 30.8009 195.807 32.5845 198.176L24.0818 198.621C24.0024 198.626 23.9279 198.662 23.8747 198.722C23.8215 198.782 23.7939 198.861 23.7981 198.942C23.8022 199.023 23.8377 199.099 23.8968 199.153C23.9558 199.207 24.0336 199.235 24.113 199.231L33.0226 198.763C34.5642 200.823 36.0903 202.924 37.5594 205.028L31.254 204.557C31.1777 204.556 31.1039 204.585 31.0477 204.637C30.9916 204.69 30.9573 204.763 30.9519 204.84C30.9464 204.918 30.9703 204.994 31.0186 205.055C31.0669 205.115 31.1359 205.154 31.2116 205.164L38.0089 205.673C38.6363 206.58 39.2521 207.486 39.8563 208.391C39.8916 208.445 39.9426 208.485 40.002 208.507C40.0613 208.529 40.126 208.531 40.1867 208.514C40.217 208.505 40.2458 208.491 40.2722 208.473C40.3377 208.428 40.3829 208.358 40.3979 208.279C40.4128 208.199 40.3964 208.117 40.3521 208.05C39.7443 207.135 39.1222 206.218 38.4859 205.299L39.0898 199.188C39.0938 199.148 39.0901 199.108 39.0788 199.069C39.0675 199.031 39.0489 198.995 39.024 198.964C38.9991 198.933 38.9684 198.907 38.9337 198.888C38.899 198.87 38.8609 198.858 38.8218 198.854" fill="#98DBF9"/>
<path d="M200.43 205.189C200.43 205.189 209.504 173.877 218.774 160.984C228.045 148.091 228.279 128.163 213.213 127.04C198.146 125.917 191.784 148.658 187.666 165.361C183.548 182.064 184.016 205.189 184.016 205.189H200.43Z" fill="#DBEFF7"/>
<path d="M187.969 186.64C188.036 186.596 188.117 186.581 188.195 186.599C188.272 186.616 188.34 186.663 188.383 186.731L193.115 194.227C194.104 189.912 195.111 185.864 196.137 182.084L190.929 172.416C190.896 172.346 190.891 172.265 190.915 172.191C190.938 172.117 190.989 172.055 191.056 172.018C191.123 171.98 191.201 171.97 191.275 171.99C191.349 172.009 191.413 172.057 191.454 172.123L196.365 181.239C197.586 176.757 198.816 172.648 200.024 168.901L195.522 156.209C195.509 156.172 195.503 156.132 195.505 156.092C195.506 156.052 195.516 156.013 195.533 155.976C195.549 155.94 195.573 155.908 195.602 155.881C195.631 155.854 195.665 155.833 195.702 155.819C195.777 155.792 195.859 155.796 195.93 155.831C196.002 155.865 196.058 155.926 196.085 156.001L200.329 167.965C202.237 162.121 204.084 157.184 205.749 153.113L202.762 142.269C202.75 142.23 202.746 142.19 202.75 142.149C202.754 142.109 202.766 142.069 202.785 142.034C202.805 141.998 202.83 141.967 202.862 141.941C202.893 141.916 202.929 141.897 202.967 141.887C203.006 141.876 203.046 141.873 203.086 141.878C203.125 141.883 203.164 141.896 203.198 141.916C203.233 141.937 203.263 141.964 203.287 141.996C203.311 142.029 203.329 142.066 203.338 142.105L206.122 152.209C210.066 142.716 212.905 138.224 212.965 138.131C213.009 138.064 213.077 138.018 213.154 138.002C213.231 137.986 213.311 138.002 213.377 138.046C213.443 138.09 213.489 138.158 213.506 138.236C213.523 138.315 213.508 138.397 213.466 138.464C213.407 138.557 210.553 143.075 206.598 152.627L216.149 149.914C216.187 149.902 216.227 149.898 216.267 149.902C216.307 149.905 216.346 149.918 216.382 149.937C216.417 149.957 216.448 149.983 216.473 150.015C216.498 150.047 216.517 150.084 216.527 150.123C216.538 150.163 216.541 150.204 216.536 150.245C216.531 150.285 216.517 150.324 216.497 150.359C216.477 150.395 216.45 150.426 216.417 150.45C216.385 150.474 216.348 150.492 216.309 150.501L206.303 153.344C204.632 157.427 202.777 162.387 200.862 168.265L210.767 163.315C210.838 163.285 210.917 163.284 210.988 163.311C211.059 163.339 211.118 163.393 211.151 163.463C211.185 163.532 211.191 163.613 211.168 163.687C211.145 163.761 211.096 163.824 211.029 163.862L200.597 169.08C199.379 172.859 198.138 177.005 196.906 181.535L205.42 178.235C205.457 178.221 205.496 178.214 205.535 178.215C205.575 178.216 205.613 178.226 205.649 178.242C205.685 178.258 205.717 178.282 205.744 178.311C205.771 178.34 205.792 178.374 205.806 178.411C205.82 178.449 205.827 178.489 205.825 178.529C205.824 178.569 205.815 178.608 205.799 178.644C205.783 178.681 205.76 178.714 205.732 178.741C205.703 178.769 205.669 178.79 205.633 178.804L196.71 182.262C195.684 186.072 194.671 190.148 193.67 194.49L202.09 190.976C202.164 190.946 202.246 190.946 202.32 190.977C202.393 191.009 202.451 191.068 202.481 191.143C202.511 191.218 202.511 191.302 202.48 191.376C202.449 191.451 202.391 191.51 202.317 191.541L193.506 195.218C192.818 198.253 192.145 201.418 191.485 204.713C191.471 204.782 191.435 204.844 191.381 204.888C191.328 204.933 191.261 204.957 191.192 204.957C191.172 204.957 191.152 204.955 191.133 204.951C191.094 204.943 191.057 204.927 191.025 204.905C190.992 204.883 190.964 204.854 190.942 204.821C190.921 204.787 190.906 204.75 190.898 204.71C190.891 204.671 190.891 204.631 190.899 204.591C191.558 201.278 192.235 198.099 192.931 195.056L187.883 187.061C187.841 186.993 187.826 186.91 187.843 186.832C187.86 186.753 187.907 186.684 187.973 186.64" fill="#98DBF9"/>
<path d="M198.531 206.721L211.574 210.528C211.574 210.528 244.29 190.484 241.851 176.656C239.411 162.828 229.589 160.272 221.362 169.795C213.135 179.317 198.531 206.721 198.531 206.721Z" fill="#DBEFF6"/>
<path d="M206.48 199.105C206.559 199.098 206.638 199.122 206.699 199.173C206.761 199.224 206.8 199.298 206.808 199.378L207.345 204.794C208.795 202.719 210.299 200.65 211.818 198.621L210.936 191.056C210.929 191.016 210.931 190.974 210.94 190.934C210.95 190.894 210.968 190.856 210.992 190.823C211.016 190.79 211.047 190.763 211.082 190.742C211.117 190.722 211.156 190.708 211.196 190.704C211.237 190.699 211.277 190.702 211.316 190.714C211.355 190.726 211.391 190.745 211.422 190.771C211.454 190.798 211.479 190.83 211.498 190.867C211.516 190.904 211.527 190.944 211.53 190.985L212.339 197.926C214.099 195.594 215.87 193.319 217.591 191.161L216.861 182.178C216.854 182.098 216.88 182.018 216.931 181.957C216.982 181.895 217.056 181.857 217.135 181.85C217.214 181.844 217.292 181.869 217.353 181.922C217.413 181.974 217.451 182.048 217.457 182.129L218.136 190.477C220.48 187.552 222.709 184.866 224.668 182.549L223.847 174.218C223.843 174.178 223.847 174.138 223.858 174.099C223.87 174.061 223.888 174.025 223.913 173.994C223.938 173.963 223.969 173.937 224.004 173.918C224.038 173.899 224.076 173.888 224.115 173.884C224.154 173.879 224.194 173.883 224.232 173.895C224.269 173.906 224.304 173.925 224.335 173.951C224.365 173.976 224.391 174.007 224.409 174.043C224.428 174.078 224.44 174.116 224.444 174.156L225.208 181.913C229.124 177.303 231.828 174.331 231.891 174.258C231.945 174.199 232.02 174.164 232.1 174.161C232.179 174.158 232.256 174.188 232.315 174.243C232.373 174.298 232.407 174.374 232.41 174.455C232.413 174.536 232.384 174.614 232.33 174.674C232.264 174.746 229.529 177.754 225.576 182.407L233.796 183.398C233.836 183.403 233.874 183.415 233.909 183.434C233.943 183.453 233.974 183.479 233.999 183.511C234.023 183.542 234.042 183.579 234.053 183.617C234.063 183.656 234.067 183.697 234.062 183.737C234.057 183.777 234.045 183.815 234.026 183.85C234.006 183.885 233.98 183.916 233.949 183.941C233.918 183.966 233.882 183.984 233.844 183.994C233.806 184.005 233.766 184.008 233.726 184.003L225.108 182.964C223.127 185.305 220.87 188.027 218.502 190.986L228.628 191.708C228.667 191.711 228.706 191.721 228.741 191.739C228.777 191.757 228.808 191.782 228.834 191.812C228.861 191.842 228.88 191.877 228.893 191.915C228.906 191.954 228.911 191.994 228.908 192.034C228.905 192.074 228.895 192.113 228.877 192.149C228.859 192.185 228.835 192.218 228.805 192.244C228.775 192.27 228.74 192.29 228.702 192.303C228.665 192.315 228.625 192.32 228.586 192.317L218.04 191.563C216.295 193.751 214.5 196.058 212.716 198.427L221.219 198.873C221.298 198.877 221.373 198.913 221.426 198.973C221.479 199.033 221.507 199.113 221.503 199.193C221.499 199.274 221.463 199.35 221.404 199.404C221.345 199.458 221.267 199.486 221.188 199.482L212.276 199.014C210.735 201.073 209.209 203.175 207.739 205.279L214.046 204.808C214.123 204.805 214.199 204.832 214.256 204.885C214.314 204.938 214.35 205.011 214.356 205.09C214.361 205.169 214.337 205.247 214.287 205.307C214.238 205.368 214.167 205.407 214.09 205.415L207.292 205.924C206.664 206.831 206.049 207.737 205.444 208.643C205.409 208.696 205.358 208.736 205.299 208.758C205.24 208.78 205.175 208.783 205.115 208.765C205.084 208.756 205.056 208.743 205.029 208.725C204.963 208.679 204.918 208.609 204.903 208.53C204.888 208.45 204.905 208.368 204.95 208.301C205.557 207.385 206.18 206.468 206.816 205.549L206.212 199.438C206.208 199.398 206.212 199.358 206.223 199.32C206.234 199.281 206.253 199.245 206.278 199.214C206.303 199.183 206.333 199.158 206.368 199.139C206.403 199.12 206.441 199.108 206.48 199.104" fill="#98DBF9"/>
<path d="M231.674 210.76C231.674 216.584 182.685 221.302 122.252 221.302C61.8197 221.302 12.832 216.584 12.832 210.76C12.832 204.937 61.8197 200.211 122.252 200.211C182.685 200.211 231.674 204.935 231.674 210.76Z" fill="#C7DBE4"/>
<path d="M71.1016 52.5L76.0618 53.8056L96.947 72.0756L93.8141 81.996H83.6324L71.1016 52.5Z" fill="#8CABEF"/>
<path d="M190.656 60.3326L173.686 73.1246L159.328 75.7358V80.9573L180.39 79.2804L199.792 69.2095L196.137 58.3516L190.656 60.3326Z" fill="#ABC3EF"/>
<path d="M213.434 200.97L213.688 203.478L209.142 206.603L206.488 204.406L208.634 201.59L213.18 198.465L213.434 200.97Z" fill="#211E1C"/>
<path d="M213.318 124.336L214.089 131.948L207.271 158.102L213.602 200.128L208.942 201.736L196.653 160.706L194.703 148.769L194.774 123.5L213.318 124.336Z" fill="#CAB5A1"/>
<path d="M177.477 132.821L187.278 203.242H191.734L192.535 158.105L200.644 126.422L177.477 132.821Z" fill="#CAB5A1"/>
<path d="M191.707 202.688V205.217L186.889 207.746L184.48 205.217L186.889 202.688H191.707Z" fill="#211E1C"/>
<path d="M213.072 115.873C209.27 90.8667 210.626 72.6558 210.428 67.6559C210.378 66.2003 210.022 64.7717 209.383 63.4629C208.744 62.1541 207.836 60.9945 206.72 60.0595C205.183 59.7165 203.839 58.7248 202.284 58.3333C191.763 55.6865 186.025 63.7198 182.087 72.384C177.238 83.0685 173.153 94.0832 169.861 105.345C166.968 115.222 164.069 125.188 162.857 135.437C162.356 139.666 161.939 143.677 166.569 145.542C173.948 148.516 182.239 148.454 190.033 149.404C198.985 150.499 207.949 151.299 216.961 151.674C221.666 151.87 216.877 140.879 213.072 115.873Z" fill="#8CABEF"/>
<path d="M193.231 20.2453C161.315 20.8754 148.558 3.60608 146.875 1.09604C146.875 1.09604 146.875 0.877629 146.775 0.945577C146.711 0.846081 146.626 1.0475 146.626 1.0475C144.119 2.7365 125.791 13.9172 96.4742 1.29018C96.4742 1.29018 80.9836 55.4538 94.4301 81.4214C108.791 109.157 123.459 119.565 123.551 119.521C123.62 119.602 141.241 115.659 164.894 95.2262C187.021 76.106 193.231 20.2453 193.231 20.2453Z" fill="#474EBB"/>
<path d="M187.64 25.0295C158.7 25.4874 147.077 10.0647 145.543 7.81919C145.543 7.81919 145.543 7.62504 145.452 7.6849C145.393 7.59592 145.318 7.7755 145.318 7.7755C143.053 9.27279 126.47 19.1738 99.8378 7.83132C99.8378 7.83132 85.9667 56.0357 98.2435 79.215C111.356 103.968 124.418 114.601 124.502 114.559C124.565 114.629 140.803 109.868 162.185 91.7393C182.189 74.7798 187.64 25.0295 187.64 25.0295Z" fill="#525FCE"/>
<path d="M144.362 12.6075C144.362 12.6075 144.443 12.4198 144.503 12.5136C144.595 12.4505 144.598 12.6544 144.598 12.6544C146.174 14.9574 157.912 30.5312 186.943 30.6874C187.787 25.6624 188.136 22.4826 188.136 22.4826C159.195 22.9405 147.573 7.51782 146.038 5.2723C146.038 5.2723 146.038 5.07817 145.947 5.13803C145.888 5.04905 145.813 5.22863 145.813 5.22863C143.548 6.72591 126.965 16.6269 100.333 5.28444C100.333 5.28444 99.4486 8.35827 98.3242 13.3258C125.279 24.1473 142.034 14.1452 144.362 12.6075Z" fill="#5E6ADD"/>
<g opacity="0.34">
<path opacity="0.34" d="M176.734 37.0438C154.852 37.4757 143.705 24.644 142.551 22.9227C142.551 22.9227 142.551 22.773 142.483 22.8199C142.439 22.7512 142.381 22.8895 142.381 22.8895C140.662 24.0479 125.637 31.7252 105.536 23.0699C105.536 23.0699 97.3751 60.1923 106.593 77.9947C116.439 97.0097 126.493 104.146 126.559 104.114C126.606 104.168 138.687 101.467 154.904 87.4581C170.076 74.3522 176.734 37.0438 176.734 37.0438Z" fill="white"/>
</g>
<path d="M167.828 131.026L181.516 124.816L190.392 115.414L193.263 118.547L185.954 129.773L174.779 138.405L167.828 131.026Z" fill="#D67086"/>
<path d="M156.804 138.39L149.503 125.886L148.801 110.76L152.973 110.566L155.465 124.824L162.259 130.52L156.804 138.39Z" fill="#D67086"/>
<path d="M155.203 175.335V204.428H159.594L162.338 186.862L164.809 173.414L155.203 175.335Z" fill="#8CABEF"/>
<path d="M164.809 172.316L166.456 184.942L168.651 205.251L173.042 204.976V189.333L175.238 173.414L164.809 172.316Z" fill="#8CABEF"/>
<path d="M162.751 129.916C162.751 129.916 158.085 129.092 156.164 136.225C154.243 143.358 149.028 164.22 148.754 175.198C148.48 186.175 155.615 179.04 164.123 180.412C172.631 181.784 179.63 181.921 179.63 176.981C179.63 172.041 182.649 130.053 162.751 129.916Z" fill="#D67086"/>
<path d="M160.073 115.732C163.956 108.879 172.666 113.264 173.262 120.091C173.601 123.974 171.003 130.445 166.43 130.122C166.145 130.749 165.646 131.936 165.002 132.201C164.306 132.487 162.77 131.463 162.16 131.084C161.982 130.991 161.833 130.851 161.73 130.679C161.67 130.277 161.733 129.866 161.911 129.501C161.416 129.292 160.949 129.022 160.521 128.697C159.612 127.935 158.897 126.968 158.435 125.875C157.973 124.782 157.777 123.595 157.864 122.411C158.061 120.042 158.819 117.753 160.073 115.732Z" fill="#FCD8B9"/>
<path d="M165.498 113.951C165.498 113.951 171.716 115.505 171.716 118.095C171.716 121.99 171.975 124.604 171.716 126.921L176.12 124.314L178.709 117.06C178.709 117.06 178.191 111.101 175.082 110.065C171.929 109.189 168.728 108.497 165.495 107.992L160.572 109.547L156.945 109.288L158.199 120.169C158.199 120.169 159.798 112.396 165.498 113.951Z" fill="#292949"/>
<path d="M155.201 204.43L152.73 206.9L153.828 208.547L158.768 206.9V204.43H155.201Z" fill="#2A2C2D"/>
<path d="M169.383 205.205L170.298 208.818L173.317 209.916L174.964 209.093L172.407 205.016L169.383 205.205Z" fill="#2A2C2D"/>
<path d="M190.391 115.417L190.912 112.284H191.957L194.045 110.195L194.828 111.761L194.306 115.677L192.453 117.457L190.391 115.417Z" fill="#FCD8B9"/>
<path d="M152.103 110.606L154.368 107.06L153.323 105.755L152.018 107.06L150.711 103.406L147.84 104.712L149.316 110.736L152.103 110.606Z" fill="#FCD8B9"/>
<path d="M210.492 73.6032L186.214 91.6596L158.855 90.1446L159.012 84.6197L182.415 82.0029L200.894 66.1556L210.787 63.1133L210.492 73.6032Z" fill="#ABC3EF"/>
<path d="M159.049 84.7526L152.889 84.5859L149.91 87.6234L150.748 89.2768L154.233 89.9239L158.9 88.6046L159.049 84.7526Z" fill="#FCD8B9"/>
<path d="M196.093 34.2344C196.093 34.2344 192.72 35.8303 191.942 44.5997C191.6 49.4147 190.609 54.1613 188.996 58.7111C188.996 58.7111 191.57 60.7512 194.011 59.956C196.453 59.1609 197.306 59.0945 197.367 55.4682C197.429 51.8419 199.908 35.0943 199.908 35.0943L196.093 34.2344Z" fill="#292949"/>
<path d="M202.335 38.8085C200.618 38.8797 198.958 39.4523 197.562 40.4557C196.166 41.459 195.094 42.8492 194.479 44.4547C193.804 43.4146 193.387 42.2278 193.264 40.9935C193.142 39.7593 193.317 38.5137 193.776 37.3611C194.234 36.2086 194.962 35.1827 195.898 34.3695C196.835 33.5564 197.953 32.9795 199.158 32.6875C200.896 34.2656 201.945 36.462 202.082 38.8053L202.335 38.8085Z" fill="#292949"/>
<path d="M194.751 41.4945C198.582 33.1506 209.127 37.3771 210.499 45.2454C211.279 49.7194 208.905 57.4955 203.563 57.5691C203.294 58.3254 202.835 59.7531 202.112 60.1244C201.332 60.5289 199.443 59.4902 198.701 59.1101C198.485 59.0214 198.298 58.8743 198.161 58.6854C198.052 58.2243 198.085 57.7411 198.255 57.2989C197.66 57.106 197.091 56.8392 196.562 56.5046C195.43 55.7096 194.503 54.6568 193.858 53.4332C193.213 52.2096 192.868 50.8502 192.852 49.4671C192.845 46.6967 193.496 43.9645 194.751 41.4945Z" fill="#FCD8B9"/>
<path d="M199.374 32.7225C199.374 32.7225 197.139 37.2087 202.879 40.035C208.619 42.8614 211.379 48.5884 209.086 53.3399C206.794 58.0915 201.393 60.6711 203.438 62.5793C205.484 64.4875 214.52 65.3296 214.52 65.3296C214.52 65.3296 224.187 48.9662 218.965 39.5473C213.744 30.1283 203.519 27.3101 199.374 32.7225Z" fill="#292949"/>
<path d="M51.0902 22.176C49.7016 22.3494 48.4225 23.0191 47.4889 24.0616C46.1591 25.7255 41.9503 33.2669 41.9973 39.121C42.0442 44.9751 41.1398 52.2488 52.7177 57.3214C58.4844 59.2029 58.6146 54.0365 63.227 53.7234C67.8394 53.4104 71.8241 55.0177 71.1924 47.8499C70.5606 40.6822 66.0356 39.0644 63.5255 31.0602C61.0155 23.0561 57.0632 19.8253 51.0902 22.176Z" fill="#D67086"/>
<path d="M49.4241 22.6406L39.1664 26.1108L31.4219 27.2352L31.5376 30.5954L39.0935 31.6543L47.2174 30.0551L49.4241 22.6406Z" fill="#D67086"/>
<path d="M58.9961 21.7305L66.4769 24.4411L72.754 22.2207L73.7247 24.3238L67.8043 28.6175L61.8815 29.022L58.9961 21.7305Z" fill="#D67086"/>
<path d="M57.0985 7.31412C57.0985 7.31412 61.7829 10.4017 61.3566 15.0651C61.3566 15.0651 64.4304 12.6019 63.1119 9.17218C61.7934 5.74241 60.9173 4.39073 57.6704 5.11551C54.4234 5.84029 57.0985 7.31412 57.0985 7.31412Z" fill="#292949"/>
<path d="M61.3089 12.467C60.7427 5.52007 52.1205 5.79994 49.1009 11.0578C47.3836 14.0508 47.06 20.2114 50.8522 21.6497C50.8481 22.2588 50.8069 23.3969 51.2243 23.8491C51.6764 24.3344 53.2902 24.0918 53.9212 24.0109C54.098 24.0039 54.2694 23.9479 54.4162 23.8491C54.6136 23.5484 54.7157 23.1952 54.709 22.8355C55.1839 22.8523 55.6589 22.8094 56.123 22.7077C57.1364 22.4341 58.0703 21.9236 58.8477 21.2183C59.6252 20.513 60.2239 19.6331 60.5947 18.6511C61.3187 16.6752 61.5635 14.5558 61.3089 12.467Z" fill="#FCD8B9"/>
<path d="M58.1911 9.14475C55.7774 11.6783 51.9472 11.8408 49.6483 14.3007C49.6483 14.3007 48.1445 15.9097 48.5304 19.7439C47.2987 19.7393 46.0953 19.3739 45.069 18.6929C44.0427 18.0119 43.2385 17.0451 42.7556 15.9121C40.9954 11.9112 45.048 4.02518 45.048 4.02518C46.654 2.97872 48.4528 2.26364 50.3389 1.92193C52.225 1.58021 54.1604 1.61874 56.0314 2.03526C58.1459 2.53193 60.05 4.12467 59.5906 6.5336C59.3891 7.52196 58.9026 8.42969 58.1911 9.14475Z" fill="#292949"/>
<path d="M49.3375 22.7246C49.3375 22.7246 48.8651 26.2369 50.7255 26.6349C52.586 27.0328 56.8732 26.2498 57.6158 25.6059C58.6407 24.7161 57.6158 22.1276 57.6158 22.1276L58.9974 21.7305C58.9974 21.7305 65.3829 34.7693 60.2391 36.7268C55.0953 38.6844 48.5844 39.2393 47.519 35.1203C46.4537 31.0013 47.9761 23.2844 47.9761 23.2844L49.3375 22.7246Z" fill="#D67086"/>
<path d="M31.4339 27.5968L27.6433 26.707L27.4727 27.5046L30.0555 29.7243L29.4084 30.1425L29.8832 30.5218L31.518 30.1028L31.4339 27.5968Z" fill="#FCD8B9"/>
<path d="M72.8516 22.496L73.8279 21.2891L75.745 21.4209L76.2587 22.9198L75.3867 24.4009L73.7276 24.2222L72.8516 22.496Z" fill="#FCD8B9"/>
<path d="M88.0518 109.373L88.9982 149.767L82.0027 201.945L76.1487 202.015L71.8816 153.996L63.3008 106.027L88.0518 109.373Z" fill="#353A85"/>
<path d="M76.1758 201.317L76.213 204.482L82.5807 207.572L85.7079 204.369L82.5055 201.242L76.1758 201.317Z" fill="#292949"/>
<path d="M56.251 202.84L61.2848 207.118L60.0262 209.635L50.7148 207.621V202.84H56.251Z" fill="#292949"/>
<path d="M67.7532 125.262L63.5696 164.413L58.0488 203.439L50.1749 203.065L50.4621 162.579L45.7227 125.029L56.8532 119.844L67.7532 125.262Z" fill="#353A85"/>
<path d="M72.3929 53.2839C72.3929 53.2839 82.1159 59.7139 88.2952 80.5651C94.5877 101.798 93.6582 129.888 93.6582 129.888C93.6582 129.888 38.354 139.248 39.4995 130.035C39.4995 130.035 37.6721 55.6329 62.212 53.8056C63.3266 53.7215 71.7902 52.8212 72.3929 53.2839Z" fill="#8CABEF"/>
<path d="M70.0414 55.3695C74.2138 65.5424 77.3418 75.136 81.6282 85.2619C84.1682 91.2616 84.1948 97.5282 84.5572 103.919C84.9175 110.272 85.2777 116.626 85.6379 122.979C85.79 125.663 85.9424 128.348 86.095 131.032L62.9805 133.458C64.3119 125.762 65.8335 118.098 67.025 110.378C68.1219 103.26 69.8036 95.2641 68.494 88.0866C67.8565 84.593 67.1673 81.1009 66.5129 77.608C65.3117 71.1991 64.7746 64.6404 63.52 58.2412C63.4318 57.7938 64.4219 55.2951 64.5643 54.8438L70.0414 55.3695Z" fill="white"/>
<path d="M63.5587 54.9441L63.5725 56.1461L57.2703 70.9435L54.4844 70.0213L56.1152 55.6187L60.4501 53.158C60.7649 52.9793 61.1209 52.8858 61.483 52.8867C61.845 52.8877 62.2005 52.983 62.5144 53.1634C62.8283 53.3437 63.0897 53.6029 63.2729 53.9151C63.456 54.2274 63.5545 54.5821 63.5587 54.9441Z" fill="#FCD8B9"/>
<path d="M57.6373 70.7742L59.1427 73.4832L57.9665 74.1635L54.2852 71.7093L54.5278 69.7461L57.6373 70.7742Z" fill="#292949"/>
<path d="M75.559 50.2614L76.287 51.2208L79.9967 66.8707L77.2076 67.7823L69.9727 55.2216L72.0014 50.6691C72.1489 50.3391 72.3797 50.0533 72.6713 49.8397C72.9628 49.6261 73.3049 49.4922 73.6639 49.451C74.023 49.4099 74.3866 49.463 74.7189 49.6051C75.0512 49.7472 75.3407 49.9734 75.559 50.2614Z" fill="#E0C5A9"/>
<path d="M80.1885 66.7773L83.0076 68.0643L82.4648 69.31L78.0449 69.5195L77.0742 67.7933L80.1885 66.7773Z" fill="#292949"/>
<path d="M69.9468 55.7565L64.5425 54.8869C64.6134 53.4329 64.8004 51.9868 65.1015 50.5625C63.6236 49.9397 61.9265 49.0369 61.7591 47.4418C61.7349 46.9361 61.7958 46.4299 61.9394 45.9445L63.3793 39.8453C63.4997 39.1311 63.7594 38.4475 64.1437 37.8336C64.5654 37.3589 65.0801 36.976 65.6559 36.7085C66.2317 36.4411 66.8563 36.2948 67.491 36.2788C69.0991 36.0685 70.7337 36.2075 72.2832 36.6863C73.8327 37.1651 75.2607 37.9725 76.4698 39.0534C77.1199 39.6251 77.6084 40.3576 77.8863 41.1776C78.1236 42.4918 77.9628 43.847 77.4243 45.0692L76.2765 48.5613C75.8365 49.9 75.2249 51.4159 73.8846 51.8463C73.1719 52.0752 72.3549 51.9458 71.7005 52.309C70.5486 52.9464 70.5964 54.6079 69.9468 55.7565Z" fill="#FCD8B9"/>
<path d="M88.9302 36.3219C89.0319 34.9372 88.9686 33.5453 88.7418 32.1755C88.3956 29.938 85.8532 28.7845 83.6084 28.4877C78.7607 27.847 74.1992 25.3475 69.3385 26.7558C66.5607 27.5647 62.8955 27.5647 60.3507 28.7878C59.2977 29.3292 58.3928 30.1195 57.7145 31.0899C56.5236 32.7569 55.8235 34.7242 55.6939 36.7687C55.5642 38.8133 56.01 40.8533 56.9808 42.6573C57.4382 43.4517 57.9644 44.2044 58.5533 44.9069C59.7513 46.3759 61.1815 48.1878 62.915 48.8107C63.0533 47.2341 61.9176 42.1687 63.2086 40.9489C65.2576 39.0124 69.565 39.9936 71.9205 40.6439C74.4904 41.3542 76.6995 43.3384 79.2565 43.8893C81.0968 44.2856 83.5227 43.5188 85.1615 42.6549C87.7282 41.3032 88.7086 38.8635 88.9302 36.3219Z" fill="#292949"/>
<path d="M56.2084 55.6328L27.4922 73.3851L33.4967 83.0443L51.249 74.6907L56.2084 55.6328Z" fill="#8CABEF"/>
<path d="M46.9931 48.1875L27.4531 73.3898L33.4989 83.1072L40.2792 79.9129L51.3426 51.3479L46.9931 48.1875Z" fill="#ABC3EF"/>
<path d="M47.8516 48.8116L50.4643 45.4505L56.7301 44.4062L57.7744 47.0166L54.6415 49.6269L50.6779 50.8589L47.8516 48.8116Z" fill="#FCD8B9"/>
<path d="M44.1699 168.354C44.1699 168.354 46.0231 169.914 47.3109 166.881C48.5987 163.849 49.9431 164.283 50.6881 165.354C51.4331 166.425 49.8363 166.352 48.9829 168.733C47.6231 172.529 45.8088 175.436 45.1552 175.835C44.5016 176.235 42.5133 177.198 42.4736 178.696C42.434 180.194 40.542 174.166 40.7232 173.876L44.1699 168.354Z" fill="#D67086"/>
<path d="M45.0517 172.772C45.0517 172.772 46.291 174.854 48.5017 172.41C50.7125 169.966 51.8393 170.817 52.1928 172.073C52.5463 173.33 51.0603 172.737 49.474 174.706C46.9454 177.847 44.2784 179.998 43.5302 180.162C42.7819 180.325 40.5874 180.584 40.0592 181.987C39.5309 183.389 39.7186 177.074 39.9855 176.859L45.0517 172.772Z" fill="#EBEBEB"/>
<path d="M29.8681 186.363C29.8681 186.363 32.3652 193.295 31.1437 195.185C29.9223 197.076 26.5475 203.34 27.0587 204.401C27.5699 205.462 27.3071 205.942 26.4003 205.602C25.4935 205.261 24.2397 204.416 24.7582 202.042C25.2767 199.668 26.321 196.92 25.5388 194.929C24.7566 192.938 26.503 187.077 26.503 187.077L29.8681 186.363Z" fill="#D67086"/>
<path d="M32.3977 161.768C32.3977 161.768 29.8189 161.37 30.0017 164.312C30.1845 167.254 27.3913 172.376 22.8024 176.174C18.3138 179.886 14.1131 185.638 19.3176 192.147C24.5221 198.655 34.3965 191.893 36.5199 188.169C38.6432 184.445 44.5612 182.082 45.7745 176.578C46.9879 171.075 43.9141 168.552 43.7717 166.846C43.6293 165.139 32.3977 161.768 32.3977 161.768Z" fill="#EBEBEB"/>
<path d="M29.9582 191.737C29.9582 191.737 31.2872 195.283 28.617 197.804C25.9468 200.324 23.4893 201.47 22.5275 203.304C21.5658 205.138 23.6713 205.762 22.0681 205.76C20.4648 205.758 19.3898 205.511 19.5322 203.523C19.6745 201.534 22.9296 199.806 22.4879 197.022C22.0462 194.238 19.8994 193.667 19.6519 191.614C19.4044 189.561 25.7413 186.113 25.7413 186.113L30.3432 191.874L29.9582 191.737Z" fill="#EBEBEB"/>
<path d="M17.9277 188.979C17.241 189.348 16.4506 189.476 15.6827 189.342C14.9148 189.209 14.2137 188.822 13.6914 188.244C11.9199 186.339 11.8253 183.623 13.8233 181.951C15.8213 180.28 17.3307 182.093 17.1511 182.709C16.9715 183.326 14.8174 185.702 17.0427 187.563C18.1161 188.243 17.9277 188.979 17.9277 188.979Z" fill="#D67086"/>
<path d="M44.3558 165.754L43.6537 166.652C43.6537 166.652 39.6763 169.11 33.4137 164.78C30.7629 162.318 31.2596 161.674 31.2596 161.674L32.4179 161.648C32.4179 161.648 36.0167 167.546 44.3558 165.754Z" fill="#474EBB"/>
<path d="M36.5273 151.645C36.6732 151.36 36.8838 151.112 37.1424 150.923C37.401 150.733 37.7003 150.607 38.0165 150.553C39.2356 150.225 41.5911 151.775 42.0813 151.827C42.5715 151.878 43.7266 151.88 42.7333 152.561C41.74 153.242 37.3662 152.757 36.5273 151.645Z" fill="#D67086"/>
<path d="M32.9579 155.36C32.9579 155.36 34.2522 152.214 37.1141 151.488C38.7853 151.108 40.5378 151.35 42.0436 152.168C42.8274 152.561 43.4996 153.102 44.2551 153.539C44.7542 153.828 45.3019 153.882 45.7985 154.209C46.4132 154.656 46.9163 155.239 47.2684 155.913C47.6204 156.586 47.812 157.332 47.8281 158.092C47.7925 159.501 50.2443 163.009 46.0549 165.045C41.8656 167.08 35.3523 165.853 33.5403 163.862C31.7284 161.87 30.0378 159.823 32.9579 155.36Z" fill="#EBEBEB"/>
<path d="M33.7578 155.51C33.3458 155.38 32.9102 155.343 32.4823 155.402C32.0544 155.461 31.6449 155.614 31.2833 155.85C30.3183 156.664 29.4002 156.68 29.7278 157.899C30.0554 159.118 30.6022 162.232 32.2969 162.814C33.9915 163.395 33.0249 160.964 33.5612 159.912C34.0975 158.86 34.6492 155.688 33.7578 155.51Z" fill="#D67086"/>
</svg>
