<svg xmlns="http://www.w3.org/2000/svg" xmlns:xlink="http://www.w3.org/1999/xlink" id="Layer_1" data-name="Layer 1" viewBox="89.65 189.6 950.05 216.07" width="200">
  <defs>
    <style>
      .cls-1 {
        fill: url(#linear-gradient-8);
      }

      .cls-1, .cls-2, .cls-3, .cls-4, .cls-5, .cls-6, .cls-7, .cls-8, .cls-9, .cls-10, .cls-11, .cls-12, .cls-13, .cls-14 {
        stroke-width: 0px;
      }

      .cls-1, .cls-2, .cls-3, .cls-4, .cls-5, .cls-7, .cls-9, .cls-10, .cls-11, .cls-12, .cls-13, .cls-14 {
        fill-rule: evenodd;
      }

      .cls-2 {
        fill: url(#linear-gradient-11);
      }

      .cls-3 {
        fill: url(#linear-gradient-7);
      }

      .cls-4 {
        fill: url(#linear-gradient-9);
      }

      .cls-5 {
        fill: url(#linear-gradient-3);
      }

      .cls-6 {
        fill: #8f9194;
      }

      .cls-7 {
        fill: url(#linear-gradient);
      }

      .cls-8 {
        fill: #280071;
      }

      .cls-9 {
        fill: url(#linear-gradient-2);
      }

      .cls-10 {
        fill: url(#linear-gradient-5);
      }

      .cls-11 {
        fill: url(#linear-gradient-12);
      }

      .cls-12 {
        fill: url(#linear-gradient-6);
      }

      .cls-13 {
        fill: url(#linear-gradient-4);
      }

      .cls-14 {
        fill: url(#linear-gradient-10);
      }
    </style>
    <linearGradient id="linear-gradient" x1="72.05" y1="285.94" x2="185.9" y2="361.36" gradientUnits="userSpaceOnUse">
      <stop offset="0" stop-color="#34ccb5"/>
      <stop offset=".17" stop-color="#15c6bc"/>
      <stop offset=".61" stop-color="#2d5cb6"/>
      <stop offset=".94" stop-color="#790c77"/>
    </linearGradient>
    <linearGradient id="linear-gradient-2" x1="65.1" y1="296.43" x2="178.95" y2="371.85" xlink:href="#linear-gradient"/>
    <linearGradient id="linear-gradient-3" x1="82.75" y1="269.8" x2="196.59" y2="345.21" xlink:href="#linear-gradient"/>
    <linearGradient id="linear-gradient-4" x1="97.94" y1="246.86" x2="211.79" y2="322.28" xlink:href="#linear-gradient"/>
    <linearGradient id="linear-gradient-5" x1="60.27" y1="303.73" x2="174.12" y2="379.14" xlink:href="#linear-gradient"/>
    <linearGradient id="linear-gradient-6" x1="63.48" y1="298.89" x2="177.32" y2="374.3" xlink:href="#linear-gradient"/>
    <linearGradient id="linear-gradient-7" x1="64.05" y1="298.02" x2="177.9" y2="373.44" xlink:href="#linear-gradient"/>
    <linearGradient id="linear-gradient-8" x1="82.64" y1="269.95" x2="196.49" y2="345.37" xlink:href="#linear-gradient"/>
    <linearGradient id="linear-gradient-9" x1="113.35" y1="223.59" x2="227.2" y2="299.01" xlink:href="#linear-gradient"/>
    <linearGradient id="linear-gradient-10" x1="88.03" y1="261.83" x2="201.87" y2="337.24" xlink:href="#linear-gradient"/>
    <linearGradient id="linear-gradient-11" x1="85.64" y1="265.43" x2="199.49" y2="340.84" xlink:href="#linear-gradient"/>
    <linearGradient id="linear-gradient-12" x1="122.35" y1="210.01" x2="236.2" y2="285.42" xlink:href="#linear-gradient"/>
  </defs>
  <g>
    <path class="cls-7" d="m191.17,372.22l.39-19.33-.17-.66-7.78-10.8,5.55,11.72-.39,19.02c-.79.22-1.53.61-2.14,1.18-.83.83-1.4,2.01-1.44,3.28,0,1.31.48,2.49,1.31,3.37.83.88,2.01,1.4,3.32,1.44,1.27,0,2.45-.48,3.32-1.31.88-.83,1.4-2.01,1.44-3.28.04-1.31-.48-2.49-1.31-3.37-.57-.57-1.27-1.01-2.1-1.27Zm1.01,4.59c0,.61-.26,1.18-.7,1.57-.44.44-1.01.66-1.62.66-.66,0-1.22-.26-1.62-.7-.44-.44-.66-1.01-.66-1.66,0-.61.31-1.18.7-1.62.44-.39,1.01-.61,1.66-.61.61,0,1.18.26,1.62.7.39.44.66,1.01.61,1.66Z"/>
    <path class="cls-9" d="m182.55,386.83l.22-31.44h-.04c.04-.26-.04-.52-.22-.7v-.04l-5.55-7.7,3.06,8.31h.09c0,13.29.35,17.67.04,31.53-.83.17-1.53.61-2.14,1.18-.88.83-1.4,1.97-1.44,3.28,0,1.31.48,2.49,1.31,3.32.83.88,2.01,1.44,3.28,1.44,1.31.04,2.49-.44,3.37-1.27.83-.87,1.4-2.01,1.44-3.32,0-1.27-.48-2.45-1.31-3.32-.57-.61-1.31-1.05-2.1-1.27Zm.31,6.17c-.44.39-1.01.66-1.66.66-.61-.05-1.18-.31-1.62-.7-.39-.44-.61-1-.61-1.66,0-.61.26-1.22.7-1.62.44-.39,1.01-.66,1.62-.61.66,0,1.22.26,1.62.7.44.39.66,1.01.66,1.62,0,.66-.26,1.22-.7,1.62Z"/>
    <path class="cls-5" d="m190.82,328.01c.31-2.32-1.05-4.46-3.24-5.2l-12.55-4.11c-.48-.18-.88-.26-1.36-.26s-1.05.09-1.53.26l-12.51,4.11c-2.23.74-3.59,2.89-3.28,5.2l1.09,7.92c5.38,2.45,10.8,5.07,16.23,7.39,5.33-2.32,10.76-4.9,16.05-7.3l1.09-8Z"/>
    <path class="cls-13" d="m249.42,291.84c.83.88,2.01,1.4,3.28,1.44,1.31,0,2.49-.48,3.37-1.31.88-.83,1.4-2.01,1.44-3.28,0-1.31-.48-2.49-1.31-3.37-.83-.83-2.01-1.4-3.28-1.44-1.05,0-2.01.31-2.8.87l-7.96-2.45-11.5-12.99-6.52-.22,1.4-7.3-8-7,9.88-2.19,17.41,15.83c-.35.61-.53,1.36-.53,2.1-.04,1.27.44,2.45,1.31,3.32.83.88,1.97,1.4,3.28,1.44,1.27.04,2.45-.48,3.32-1.31.88-.83,1.4-1.97,1.44-3.28.04-1.31-.48-2.49-1.31-3.32-.83-.87-2.01-1.44-3.28-1.44-.96-.04-1.88.26-2.67.74l-17.36-15.83,1.09-9.71-16.49-.79-7,3.98-1.49,4.99-.04-10.15,8.97-5.38,13.82.7c.17.88.61,1.66,1.18,2.27.83.87,2.01,1.4,3.32,1.44,1.27.04,2.45-.48,3.32-1.31.88-.83,1.4-1.97,1.44-3.28.04-1.31-.48-2.49-1.31-3.37-.83-.83-1.97-1.4-3.28-1.4-1.31-.04-2.49.44-3.32,1.27-.57.57-1.01,1.22-1.22,1.97l-14.21-.7-.66.18-8.09,4.85v-1.4l8.62-12.33c.48.17,1.01.31,1.57.31,1.27.04,2.45-.48,3.33-1.31.87-.83,1.4-1.97,1.44-3.28.05-1.31-.48-2.49-1.31-3.32v-.04c-.83-.83-2.01-1.4-3.28-1.44-1.31,0-2.49.48-3.32,1.31-.88.83-1.44,2.01-1.44,3.32-.04,1.18.39,2.27,1.09,3.11l-8.88,12.64-.22.66.09,10.8-1.18.35-2.58,9.45.17-8.66.09-2.49.26-13.03,4.02-15.48c1.27,0,2.41-.53,3.24-1.31.88-.83,1.44-2.01,1.44-3.28.04-1.31-.48-2.49-1.31-3.37-.83-.88-1.97-1.4-3.28-1.44-1.27,0-2.45.48-3.32,1.31-.87.83-1.44,2.01-1.44,3.28-.05,1.31.48,2.49,1.31,3.37.31.31.66.61,1.05.83l-4.07,15.66-.05.31-.35,16.44-3.5,1.09-3.89,10.36.17-10.23c.79-.26,1.57-.7,2.19-1.27.96-.96,1.57-2.23,1.57-3.67.04-1.44-.52-2.76-1.44-3.76-.74-.74-1.75-1.31-2.84-1.49l-.52-10.67,3.45-23.53c.09-.66-.39-1.27-1.05-1.36-.66-.09-1.22.35-1.36,1.01l-3.41,23.62v.22l.52,10.8c-.83.26-1.62.7-2.19,1.27-1.01.92-1.62,2.23-1.62,3.67-.04,1.44.52,2.75,1.44,3.72.74.79,1.75,1.36,2.84,1.53l.09,1.75-8.57,2.75-2.76,7.92v-25.15l5.51-3.63.22-11.11c.83-.22,1.57-.61,2.14-1.18.88-.83,1.44-2.01,1.44-3.28.04-1.31-.48-2.49-1.31-3.37-.57-.57-1.27-1.01-2.1-1.27l.31-13.25c.79-.22,1.53-.61,2.14-1.18.88-.83,1.4-2.01,1.44-3.32,0-1.27-.48-2.45-1.31-3.32-.83-.87-2.01-1.4-3.28-1.44-1.31-.04-2.49.48-3.37,1.31-.88.83-1.4,2.01-1.44,3.28,0,1.31.48,2.49,1.31,3.37.57.57,1.31,1.01,2.1,1.22l-.26,13.3c-.83.22-1.57.61-2.14,1.18-.87.83-1.44,2.01-1.44,3.28-.04,1.31.48,2.49,1.31,3.37.57.57,1.27,1.05,2.1,1.27l-.22,9.93-3.15,2.27v-11.2c-1.01-.79-1.27-1.27-2.23-2.06v14.87l-5.51-3.63-.22-10.19c.79-.22,1.53-.7,2.1-1.27.83-.87,1.31-2.06,1.27-3.37,0-1.27-.57-2.45-1.44-3.28-.57-.57-1.31-.96-2.14-1.18l-.26-13.3c.83-.22,1.53-.66,2.1-1.22.83-.87,1.36-2.06,1.31-3.37-.04-1.27-.57-2.45-1.44-3.28s-2.06-1.36-3.32-1.31c-1.31.04-2.45.57-3.28,1.44-.87.87-1.36,2.06-1.31,3.32,0,1.31.57,2.49,1.4,3.32.61.57,1.36.96,2.19,1.18l.26,13.25c-.83.26-1.53.7-2.1,1.27-.83.88-1.36,2.06-1.31,3.37.04,1.27.57,2.45,1.44,3.28.57.57,1.31.96,2.14,1.18l.22,11.11,7.92,5.64v16.84l-13.73-4.37.09-1.75c1.09-.17,2.1-.74,2.84-1.53.92-.96,1.49-2.27,1.44-3.72,0-1.44-.61-2.75-1.57-3.67-.61-.57-1.36-1.01-2.19-1.27l.53-10.8-.04-.22-3.41-23.62c-.09-.66-.7-1.09-1.36-1.01-.66.09-1.14.7-1.01,1.36l3.41,23.53-.53,10.67c-1.09.18-2.1.74-2.84,1.49-.92,1.01-1.49,2.32-1.44,3.76,0,1.44.61,2.71,1.62,3.67.61.57,1.36,1.01,2.19,1.27l.13,10.23-3.89-10.36-3.5-1.09-.35-16.44-.04-.31-4.07-15.66c.39-.22.74-.52,1.09-.83.83-.88,1.31-2.06,1.31-3.37-.04-1.27-.61-2.45-1.44-3.28-.88-.83-2.06-1.31-3.37-1.31-1.31.04-2.45.57-3.28,1.44-.83.87-1.36,2.06-1.31,3.37.04,1.27.57,2.45,1.44,3.28.83.79,1.97,1.31,3.24,1.31l4.07,15.48.26,13.03.04,2.49.17,8.66-2.54-9.45-1.22-.35.09-10.8-.22-.66-8.88-12.64c.74-.83,1.14-1.92,1.14-3.11-.04-1.31-.57-2.49-1.44-3.32-.87-.83-2.06-1.31-3.37-1.31-1.27.04-2.45.61-3.28,1.44v.04c-.83.83-1.31,2.01-1.31,3.32.04,1.31.57,2.45,1.44,3.28.87.83,2.06,1.36,3.37,1.31.53,0,1.05-.13,1.53-.31l8.62,12.33v1.4l-8.09-4.85-.66-.18-14.17.7c-.26-.74-.7-1.4-1.22-1.97-.87-.83-2.06-1.31-3.37-1.27-1.27,0-2.45.57-3.28,1.4-.83.87-1.31,2.06-1.31,3.37.04,1.31.57,2.45,1.44,3.28.87.83,2.06,1.36,3.37,1.31,1.27-.04,2.45-.57,3.28-1.44.57-.61,1.01-1.4,1.18-2.27l13.86-.7,8.97,5.38-.04,10.15-1.53-4.99-7-3.98-16.49.79,1.14,9.71-17.41,15.83c-.79-.48-1.66-.79-2.67-.74-1.27,0-2.45.57-3.28,1.44-.83.83-1.31,2.01-1.31,3.32.04,1.31.57,2.45,1.44,3.28.87.83,2.06,1.36,3.37,1.31,1.27-.04,2.45-.57,3.28-1.44.83-.87,1.31-2.06,1.31-3.32-.04-.74-.22-1.49-.57-2.1l17.41-15.83,9.93,2.19-8.05,7,1.44,7.3-6.56.22-11.5,12.99-7.96,2.45c-.79-.57-1.75-.87-2.8-.87-1.27.04-2.45.61-3.28,1.44-.83.88-1.31,2.06-1.31,3.37.04,1.27.61,2.45,1.44,3.28.87.83,2.06,1.31,3.37,1.31,1.27-.04,2.45-.57,3.28-1.44.83-.87,1.31-2.06,1.31-3.37,0-.61-.18-1.18-.39-1.75l5.99-1.79.74,7-6.82,8.27c-.66-.26-1.36-.44-2.1-.44-1.27.04-2.45.61-3.28,1.44-.83.87-1.31,2.06-1.31,3.37.04,1.31.57,2.45,1.44,3.28.87.83,2.06,1.36,3.37,1.31,1.27-.04,2.45-.57,3.28-1.44.83-.87,1.31-2.06,1.31-3.32-.04-1.01-.35-1.92-.88-2.67l7.48-9.05-1.01-8.92,10.76-12.07,11.89-.66-5.55,2.97,1.22,6.3,1.62,1.01-25.19,32.93-.22.74.04,2.32-7.17,5.55.09,4.02c-.79.22-1.53.66-2.1,1.27-.83.87-1.31,2.06-1.31,3.32.04,1.31.57,2.45,1.44,3.28.87.83,2.06,1.36,3.37,1.31,1.27,0,2.45-.57,3.28-1.44.83-.87,1.31-2.06,1.31-3.32-.04-1.31-.57-2.45-1.44-3.28-.61-.57-1.31-1.01-2.14-1.18l-.09-2.84,4.81-3.72.35,17.84c-.79.22-1.49.7-2.06,1.27-.83.88-1.36,2.06-1.31,3.32,0,1.31.57,2.49,1.44,3.33.87.83,2.06,1.31,3.32,1.31,1.31-.04,2.45-.61,3.28-1.44.83-.87,1.36-2.05,1.31-3.37,0-1.27-.57-2.45-1.44-3.28-.57-.57-1.31-.96-2.14-1.18l-.44-22.74,18.67-24.45.87,11.37-5.95,7.61c-.57-.22-1.22-.39-1.92-.35-1.31,0-2.45.57-3.28,1.44-.83.87-1.36,2.06-1.31,3.32,0,1.31.57,2.45,1.44,3.28s2.06,1.36,3.32,1.31c1.31,0,2.45-.57,3.28-1.44.83-.87,1.36-2.06,1.31-3.32,0-1.05-.35-2.01-.96-2.76l6.21-8,.26-.83-1.14-14.48,4.2-5.47,6.39-8.57-2.89,10.76,7.96,4.99-24.53,36.39-.22.7.09,4.02-4.68,3.63.17,9.88c.04.66.57,1.18,1.22,1.14.66,0,1.18-.52,1.18-1.18l-.17-8.7,2.32-1.79.57,27.81c-.79.22-1.53.7-2.1,1.27-.83.87-1.31,2.06-1.31,3.32.04,1.31.57,2.49,1.44,3.32.87.83,2.05,1.31,3.37,1.31,1.27-.04,2.45-.61,3.28-1.44.83-.88,1.31-2.06,1.31-3.37-.04-1.27-.57-2.45-1.44-3.28-.61-.57-1.36-.96-2.14-1.18l-.48-23.22,4.94,3.54.17,7.61c-.83.22-1.53.7-2.1,1.27-.83.88-1.36,2.06-1.31,3.32,0,1.31.57,2.49,1.44,3.33.87.83,2.06,1.31,3.32,1.31,1.31-.04,2.45-.61,3.28-1.44.83-.87,1.36-2.05,1.31-3.37,0-1.27-.57-2.45-1.44-3.28-.57-.57-1.31-.96-2.14-1.18l-.18-8.83-7.35-5.25-.17-8.27,16.57-24.53,6.82,5.77-4.2,6.47-5.9.31-5.47,8.22c-.39.53-.22,1.27.31,1.66.57.35,1.31.18,1.66-.35l4.81-7.22,3.02-.13-6.12,9.45c-.48-.17-1.01-.22-1.53-.22-1.31,0-2.45.57-3.32,1.44-.83.87-1.31,2.05-1.27,3.32,0,1.31.57,2.45,1.4,3.28.87.83,2.06,1.36,3.37,1.31,1.27,0,2.45-.57,3.28-1.44.83-.83,1.36-2.06,1.31-3.32-.04-1.18-.48-2.27-1.22-3.06l14.56-22.57-1.44,5.6,5.03,4.33-17.01,25.58-.22.7.48,23.13c-.83.22-1.53.66-2.1,1.27-.83.87-1.36,2.06-1.31,3.32.04,1.31.57,2.45,1.44,3.28.87.87,2.06,1.36,3.32,1.31,1.31,0,2.49-.57,3.32-1.44.83-.83,1.31-2.06,1.27-3.32,0-1.31-.57-2.45-1.4-3.28h-.04c-.57-.57-1.31-1.01-2.14-1.18l-.17-8.61,8,5.95.39,18.81c-.83.22-1.53.66-2.1,1.22-.83.88-1.36,2.06-1.31,3.37.04,1.31.57,2.45,1.44,3.28.87.83,2.06,1.35,3.32,1.31,1.31-.05,2.45-.57,3.28-1.44.87-.88,1.36-2.06,1.31-3.32,0-1.31-.57-2.49-1.44-3.32-.57-.57-1.31-.96-2.14-1.18l-.39-19.9-10.41-7.78-.22-11.15,9.53-14.34,5.07,8.4.09,4.33c-.79.22-1.53.66-2.1,1.27-.83.87-1.31,2.05-1.31,3.32.04,1.31.61,2.45,1.44,3.28.87.83,2.06,1.36,3.37,1.31,1.27,0,2.45-.57,3.28-1.44.83-.88,1.31-2.05,1.31-3.32-.04-1.31-.57-2.45-1.44-3.28-.61-.57-1.31-1.01-2.14-1.18l-.09-4.64-.18-.61-5.82-9.62,5.64-8.48,3.76-5.47-1.92,7,2.01,1.71.17,1.09,16.4-5.55c.92-.31,2.23-.35,3.15-.13l16.71,5.68.13-1.09,2.01-1.71-1.92-7,3.76,5.47,5.68,8.48-5.82,9.62-.22.61-.09,4.64c-.79.17-1.53.61-2.14,1.18-.88.83-1.4,1.97-1.44,3.28,0,1.27.48,2.45,1.31,3.32.83.87,2.01,1.44,3.28,1.44,1.31.04,2.49-.48,3.37-1.31.87-.83,1.4-1.97,1.44-3.28,0-1.27-.48-2.45-1.31-3.32-.57-.61-1.27-1.05-2.1-1.27l.09-4.33,5.07-8.4,9.53,14.34-.22,11.15-10.41,7.78-.39,19.9c-.83.22-1.57.61-2.14,1.18-.88.83-1.44,2.01-1.44,3.32-.04,1.27.48,2.45,1.31,3.32.83.87,1.97,1.4,3.28,1.44,1.27.04,2.45-.48,3.32-1.31.87-.83,1.44-1.97,1.44-3.28.04-1.31-.48-2.49-1.31-3.37-.57-.57-1.27-1.01-2.1-1.22l.39-18.81,8-5.95-.18,8.61c-.83.17-1.57.61-2.14,1.18-.87.83-1.44,1.97-1.44,3.28-.04,1.27.48,2.49,1.31,3.32.83.87,1.97,1.44,3.28,1.44,1.27.04,2.45-.44,3.32-1.31.88-.83,1.44-1.97,1.44-3.28.04-1.27-.48-2.45-1.31-3.32-.57-.61-1.27-1.05-2.1-1.27l.48-23.13-.17-.7-17.05-25.58,5.03-4.33-1.44-5.6,14.56,22.57c-.74.79-1.18,1.88-1.22,3.06,0,1.27.48,2.49,1.31,3.32.83.87,2.01,1.44,3.28,1.44,1.31.04,2.49-.48,3.37-1.31.88-.83,1.4-1.97,1.44-3.28,0-1.27-.48-2.45-1.31-3.32-.83-.87-2.01-1.44-3.28-1.44-.57,0-1.09.04-1.57.22l-6.12-9.45,3.02.13,4.81,7.22c.39.53,1.14.7,1.66.35.57-.39.7-1.14.35-1.66l-5.51-8.22-5.9-.31-4.2-6.47,6.82-5.77,16.57,24.53-.13,8.27-7.39,5.25-.18,8.83c-.83.22-1.57.61-2.14,1.18-.88.83-1.4,2.01-1.44,3.28-.04,1.31.48,2.49,1.31,3.37.83.83,1.97,1.4,3.28,1.44,1.31,0,2.49-.48,3.32-1.31.88-.83,1.44-2.01,1.44-3.33.04-1.27-.44-2.45-1.31-3.32-.52-.57-1.27-1.05-2.06-1.27l.13-7.61,4.94-3.54-.48,23.22c-.79.22-1.53.61-2.14,1.18-.83.83-1.4,2.01-1.44,3.28,0,1.31.48,2.49,1.31,3.37.83.83,2.01,1.4,3.32,1.44,1.27,0,2.45-.48,3.32-1.31.88-.83,1.4-2.01,1.44-3.32.04-1.27-.48-2.45-1.31-3.32-.57-.57-1.27-1.05-2.1-1.27l.57-27.81,2.32,1.79-.17,8.7c0,.66.52,1.18,1.18,1.18.66.04,1.18-.48,1.22-1.14l.17-9.88-4.68-3.63.09-4.02-.17-.7-24.58-36.39,8-4.99-2.93-10.76,6.39,8.57,4.2,5.47-1.14,14.48.26.83,6.21,8c-.61.74-.96,1.71-.96,2.76-.04,1.27.48,2.45,1.31,3.32.83.87,1.97,1.44,3.28,1.44,1.27.04,2.45-.48,3.32-1.31.87-.83,1.44-1.97,1.44-3.28.04-1.27-.48-2.45-1.31-3.32-.83-.87-1.97-1.44-3.28-1.44-.66-.04-1.31.13-1.93.35l-5.95-7.61.87-11.37,18.72,24.45-.48,22.74c-.83.22-1.53.61-2.14,1.18-.87.83-1.4,2.01-1.44,3.28-.04,1.31.48,2.49,1.31,3.37.83.83,1.97,1.4,3.28,1.44,1.31,0,2.49-.48,3.32-1.31h.04c.83-.83,1.4-2.01,1.44-3.33,0-1.27-.48-2.45-1.31-3.32-.57-.57-1.31-1.05-2.1-1.27l.35-17.84,4.81,3.72-.09,2.84c-.79.17-1.53.61-2.14,1.18-.83.83-1.4,1.97-1.44,3.28,0,1.27.48,2.45,1.31,3.32.83.87,2.01,1.44,3.28,1.44,1.31.04,2.49-.48,3.37-1.31.87-.83,1.4-1.97,1.44-3.28,0-1.27-.48-2.45-1.31-3.32-.57-.61-1.27-1.05-2.1-1.27l.09-4.02-7.17-5.55.04-2.32-.22-.74-25.19-32.93,1.62-1.01,1.22-6.3-5.51-2.97,11.89.66,10.72,12.07-1.01,8.92,7.52,9.05c-.57.74-.88,1.66-.88,2.67-.04,1.27.44,2.45,1.31,3.32.83.87,1.97,1.4,3.28,1.44,1.27.04,2.45-.48,3.32-1.31.88-.83,1.4-1.97,1.44-3.28.04-1.31-.48-2.49-1.31-3.37-.83-.83-1.97-1.4-3.28-1.44-.74,0-1.44.17-2.05.44l-6.87-8.27.79-7,5.95,1.79c-.22.57-.35,1.14-.39,1.75,0,1.31.48,2.49,1.31,3.37Zm1.75-4.9s.04-.04.09-.04c.44-.39,1.01-.61,1.62-.61s1.18.31,1.62.7c.39.44.61,1.01.61,1.66,0,.61-.26,1.18-.7,1.62-.44.39-1.01.66-1.62.61-.66,0-1.22-.26-1.62-.7-.44-.44-.66-1.01-.66-1.62,0-.66.26-1.18.66-1.62Zm-3.81-17.97c.44-.39,1.01-.66,1.66-.66.61.04,1.18.31,1.62.7.39.44.66,1.01.61,1.66,0,.61-.26,1.18-.7,1.62-.39.39-1.01.66-1.62.61-.66,0-1.22-.26-1.62-.7-.39-.39-.66-1.01-.66-1.62,0-.66.31-1.22.7-1.62Zm-16.49-37.09c.44-.39,1.01-.66,1.66-.66.61,0,1.22.31,1.62.7.39.44.66,1.01.61,1.66,0,.61-.26,1.18-.7,1.62-.39.39-1.01.66-1.62.61-.66,0-1.22-.26-1.62-.7-.39-.39-.66-1.01-.66-1.62.04-.66.31-1.22.7-1.62Zm-17.14-15.22c.44-.44,1.01-.66,1.66-.66.61,0,1.18.31,1.62.7.39.44.66,1.01.61,1.66,0,.61-.26,1.18-.7,1.62-.39.39-1.01.66-1.62.61-.66,0-1.22-.26-1.62-.7-.39-.44-.66-1.01-.66-1.62,0-.66.31-1.22.7-1.62Zm-11.81-7.43c.44-.44,1.01-.66,1.66-.66s1.22.26,1.62.7c.39.44.66,1.01.66,1.66-.04.61-.31,1.18-.74,1.62-.39.39-1.01.61-1.62.61-.66,0-1.22-.26-1.62-.7-.39-.44-.66-1.01-.66-1.62.04-.66.31-1.22.7-1.62Zm-22.61-13.34c-.39-.44-.61-1.01-.61-1.66,0-.61.26-1.18.7-1.62.44-.39,1.01-.66,1.66-.61.61,0,1.18.26,1.57.7.44.44.66,1.01.66,1.62,0,.66-.26,1.22-.7,1.62-.44.44-1.01.66-1.66.66-.61,0-1.18-.31-1.62-.7Zm-.44,22.35c-.39-.44-.66-1.01-.66-1.62.04-.66.31-1.22.74-1.62.39-.44,1.01-.66,1.62-.66.66,0,1.22.31,1.62.7.39.44.66,1.01.66,1.66-.04.61-.31,1.18-.74,1.62-.39.39-1.01.66-1.62.61-.66,0-1.22-.26-1.62-.7Zm-14.3-22.3c-.39-.39-.7-.96-.7-1.62,0-.61.22-1.18.66-1.62.39-.44.96-.7,1.62-.7.61-.04,1.22.22,1.62.61.44.44.7,1.01.7,1.62.04.66-.22,1.22-.61,1.66-.44.39-1.01.7-1.62.7-.66,0-1.22-.22-1.66-.66Zm.48,22.39c-.44-.44-.7-1.01-.7-1.62-.04-.66.22-1.22.61-1.66.44-.39,1.01-.7,1.62-.7.66,0,1.22.22,1.66.66.39.39.66.96.7,1.62,0,.61-.26,1.18-.66,1.62-.39.44-.96.7-1.62.7-.61.04-1.22-.22-1.62-.61Zm-21.39-5.16c-.61,0-1.18-.22-1.62-.61-.44-.44-.7-1.01-.7-1.62-.04-.66.22-1.22.61-1.66.44-.44,1.01-.7,1.62-.7.66,0,1.22.22,1.66.66.39.39.7.96.7,1.62,0,.61-.22,1.18-.66,1.62-.39.44-.96.7-1.62.7Zm-10.19,6.73c-.39.44-.96.7-1.62.7-.61.04-1.18-.22-1.62-.61-.44-.44-.7-1.01-.7-1.62,0-.66.22-1.22.61-1.66.44-.39,1.01-.7,1.62-.7.66,0,1.22.22,1.66.66.44.39.7.96.7,1.62,0,.61-.22,1.18-.66,1.62Zm-17.14,15.22c-.39.44-.96.7-1.62.7-.61.04-1.18-.22-1.62-.61-.44-.44-.7-1.01-.7-1.62-.04-.66.22-1.22.61-1.66.44-.39,1.01-.7,1.62-.7.66,0,1.22.26,1.66.66.39.39.7.96.7,1.62,0,.61-.22,1.22-.66,1.62Zm-16.49,37.09c-.39.44-.96.7-1.62.7-.61.04-1.18-.22-1.62-.61-.44-.44-.7-1-.7-1.62,0-.66.22-1.22.61-1.66.44-.39,1.01-.66,1.62-.7.66,0,1.22.26,1.66.66.44.39.7.96.7,1.62,0,.61-.22,1.22-.66,1.62Zm-3.81,17.97c-.44.44-1.01.7-1.62.7-.66.04-1.22-.22-1.66-.61-.44-.44-.7-1-.7-1.62,0-.66.22-1.22.66-1.66.39-.39.96-.7,1.62-.7.61,0,1.18.22,1.57.61.04,0,.04.04.09.04.39.44.66.96.66,1.62,0,.61-.22,1.18-.61,1.62Zm2.19,15.88c-.39.44-.96.7-1.62.7-.61.04-1.18-.22-1.62-.61-.44-.44-.7-1.01-.7-1.62,0-.66.22-1.22.61-1.66.44-.39,1.01-.7,1.62-.7.66,0,1.22.22,1.66.66.44.39.7.96.7,1.62,0,.61-.22,1.18-.66,1.62Zm-.96,23.66c.44.39.7.96.7,1.62,0,.61-.22,1.22-.61,1.62-.44.44-1.01.7-1.62.7-.66.04-1.22-.22-1.66-.61-.44-.39-.7-1.01-.7-1.62,0-.66.22-1.22.66-1.66.39-.39.96-.66,1.57-.7.66,0,1.22.26,1.66.66Zm7.48,11.24c.44.44.7,1.01.74,1.62,0,.66-.26,1.22-.66,1.66-.39.39-.96.7-1.62.7s-1.22-.22-1.66-.66c-.39-.39-.66-.96-.7-1.62,0-.61.26-1.18.66-1.62.39-.44.96-.7,1.62-.7.61-.04,1.22.22,1.62.61Zm12.51-25.15c-.39.39-.96.66-1.62.7-.61,0-1.22-.26-1.62-.66-.44-.39-.7-.96-.74-1.62,0-.61.26-1.22.66-1.62.39-.44.96-.7,1.62-.74.53,0,1.05.17,1.44.48l.04.04s.09.09.17.13c.39.39.66.96.7,1.62,0,.66-.26,1.22-.66,1.66Zm14.65-62.98l-11.41-2.49-.79-6.91,2.8,4.46,7.92,1.53,8.88-3.06-7.39,6.47Zm-5.77,99.54c.44.44.7,1.01.74,1.62,0,.66-.26,1.22-.66,1.66-.39.39-.96.7-1.62.7s-1.22-.22-1.66-.66c-.39-.39-.66-.96-.7-1.62,0-.61.26-1.18.66-1.62.39-.44.96-.7,1.62-.7.61-.04,1.22.22,1.62.61Zm-7,12.11c.44.44.7,1.01.7,1.62,0,.66-.22,1.22-.61,1.66-.44.39-1.01.7-1.62.7-.66,0-1.22-.22-1.66-.66-.44-.39-.7-.96-.7-1.62,0-.61.22-1.18.61-1.62.44-.44,1.01-.7,1.62-.7.66-.04,1.22.22,1.66.61Zm10.54-31.66c-.44.44-1.01.7-1.62.74-.66,0-1.22-.26-1.66-.66-.39-.39-.7-.96-.7-1.62,0-.61.26-1.22.66-1.62.39-.44.96-.7,1.62-.74.44,0,.87.13,1.22.35l.04.04h.04c.13.09.22.17.31.26.44.39.7.96.7,1.62.04.66-.22,1.22-.61,1.62Zm16.66,50.99c.39.39.66.96.7,1.62,0,.61-.26,1.18-.66,1.62-.39.44-.96.7-1.62.7-.61.04-1.22-.22-1.62-.61-.44-.44-.7-1.01-.7-1.62-.04-.66.22-1.22.61-1.66.44-.39,1.01-.7,1.62-.7.66,0,1.22.22,1.66.66Zm-10.58-16.09c.39.39.7.96.7,1.62s-.22,1.22-.66,1.66c-.39.39-.96.66-1.62.7-.61,0-1.22-.26-1.62-.66-.44-.39-.7-.96-.7-1.62-.04-.61.22-1.22.61-1.62.44-.44,1.01-.7,1.62-.7.66-.04,1.22.22,1.66.61Zm16.62-24.45c.44.39.7.96.7,1.62.04.61-.22,1.22-.61,1.62-.44.44-1.01.7-1.62.7-.66.04-1.22-.22-1.66-.61-.44-.39-.7-1.01-.7-1.62,0-.66.22-1.22.66-1.66.39-.39.96-.66,1.62-.7.61,0,1.18.26,1.62.66Zm45.7.04c.39.44.61,1.01.61,1.66,0,.61-.26,1.22-.7,1.62s-1.01.66-1.66.61c-.61,0-1.18-.26-1.57-.7-.44-.39-.66-1.01-.66-1.62,0-.66.26-1.22.7-1.62.44-.39,1.01-.66,1.66-.66.61.04,1.18.31,1.62.7Zm6.04,40.54c.39.44.66,1.01.66,1.66-.04.61-.31,1.18-.74,1.62-.39.39-1.01.66-1.62.61-.66,0-1.22-.26-1.62-.7-.39-.44-.66-1.01-.66-1.62.04-.66.31-1.22.74-1.62.39-.44.96-.66,1.62-.66s1.22.31,1.62.7Zm8.96-16.75c.66,0,1.22.26,1.62.7.39.39.66,1,.66,1.62-.04.66-.31,1.22-.74,1.62-.39.39-1,.66-1.62.66-.66-.04-1.22-.31-1.62-.7-.39-.44-.66-1.01-.66-1.66.04-.66.31-1.22.7-1.62.44-.39,1.01-.66,1.66-.61Zm4.5-37.52c.09-.09.17-.18.31-.26h.04l.04-.04c.35-.22.79-.35,1.27-.35.61.04,1.18.31,1.57.74.44.39.66,1.01.66,1.62,0,.66-.26,1.22-.7,1.62-.44.39-1.01.66-1.66.66-.61-.04-1.18-.31-1.62-.74-.39-.39-.61-.96-.61-1.62s.26-1.22.7-1.62Zm-31.57-84.05c-.48-.53-.79-1.27-.79-2.06.04-.79.35-1.49.88-2.01.52-.48,1.27-.79,2.05-.79.79.04,1.49.35,2.01.87.48.53.79,1.27.79,2.06-.04.79-.35,1.49-.88,1.97v.04c-.52.48-1.27.79-2.06.79-.79-.04-1.49-.35-2.01-.87Zm-28.91.09v-.04c-.53-.48-.83-1.18-.87-1.97,0-.79.31-1.53.83-2.06.48-.53,1.18-.83,1.97-.87.79,0,1.53.31,2.06.79.53.53.83,1.22.87,2.01,0,.79-.31,1.53-.79,2.06-.53.52-1.22.83-2.01.87-.79,0-1.53-.31-2.06-.79Zm40.8,33.02l-11.89.31-4.02,9.53,6.21,13.43c-4.9,3.59-9.27,7.39-14.52,10.54-4.9-3.54-9.84-6.95-14.69-10.54l6.25-13.43-4.07-9.53-11.9-.31-8.61-8.62,21.82,6.65c.26.09.48.31.57.61l4.81,11.28-5.82,12.64,11.63-2.01,11.46,2.01-5.82-12.64,4.81-11.28c.13-.31.31-.53.61-.61l21.82-6.65-8.66,8.62Zm26.37,73.82c.39.44.66,1.01.66,1.62-.05.66-.31,1.22-.7,1.62-.44.44-1.01.66-1.66.66-.61,0-1.18-.31-1.62-.7-.39-.44-.66-1.01-.61-1.66,0-.61.26-1.18.7-1.62.39-.39,1.01-.66,1.62-.61.66,0,1.22.26,1.62.7Zm5.42,11.41c.61,0,1.18.26,1.62.7.39.44.66,1,.61,1.62,0,.66-.26,1.22-.7,1.62-.44.44-1,.66-1.62.66-.66,0-1.22-.31-1.62-.7-.44-.44-.66-1.01-.66-1.66,0-.61.31-1.18.7-1.62.44-.39,1.01-.66,1.66-.61Zm-21.82-117.51l8.88,3.06,7.91-1.53,2.8-4.46-.79,6.91-11.37,2.49-7.44-6.47Zm21.43,67.79c0-.66.26-1.22.7-1.62.05-.04.09-.09.13-.13l.04-.04c.39-.31.92-.48,1.44-.48.66.04,1.22.31,1.62.74.39.39.66,1.01.66,1.62-.04.66-.31,1.22-.7,1.62-.44.39-1.01.66-1.66.66-.66-.04-1.22-.31-1.62-.7-.39-.44-.66-1.01-.61-1.66Zm23.88,15.61c.39.44.66,1.01.61,1.66,0,.61-.26,1.22-.7,1.62-.44.39-1.01.66-1.62.61-.66,0-1.22-.26-1.62-.7-.44-.39-.66-1.01-.66-1.62,0-.66.26-1.22.7-1.62.44-.39,1.01-.66,1.66-.66.61.04,1.18.31,1.62.7Zm-9.14,10.58c.66,0,1.22.26,1.62.7.44.44.66,1.01.66,1.62,0,.66-.31,1.22-.7,1.62-.44.44-1.01.66-1.66.66-.61,0-1.18-.31-1.62-.7-.39-.44-.66-1.01-.61-1.66,0-.61.26-1.18.7-1.62.39-.39,1.01-.66,1.62-.61Zm4.94-37.52c.44-.44,1.01-.66,1.66-.66.61,0,1.18.31,1.62.7.39.44.66,1.01.61,1.66,0,.61-.26,1.18-.7,1.62-.39.39-1.01.66-1.62.61-.66,0-1.22-.26-1.62-.7-.44-.44-.66-1.01-.66-1.62,0-.66.31-1.22.7-1.62Z"/>
    <path class="cls-10" d="m164.67,354.64v.04c-.17.17-.22.44-.22.7l.83,41.06c-.83.22-1.53.7-2.1,1.27-.83.88-1.36,2.06-1.31,3.37.04,1.27.57,2.45,1.44,3.28.87.83,2.06,1.31,3.32,1.31,1.31-.04,2.49-.61,3.32-1.44.83-.87,1.31-2.06,1.27-3.37,0-1.27-.57-2.45-1.44-3.28-.57-.57-1.31-.96-2.14-1.18-.26-13.82-.48-28.12-.48-41.15l4.46-10.23-6.95,9.62Zm3.5,44.65c.39.44.66,1.01.7,1.62,0,.66-.26,1.22-.66,1.66-.39.44-.96.7-1.62.7-.61,0-1.22-.22-1.62-.66-.44-.39-.7-.96-.7-1.62-.04-.61.22-1.18.61-1.62.44-.44,1.01-.7,1.62-.7.66-.04,1.22.22,1.66.61Z"/>
    <path class="cls-12" d="m142.1,347.6c-.92,0-1.79.39-2.41,1.05-.61.61-.96,1.49-.96,2.45.04.92.44,1.79,1.09,2.41.61.57,1.49.96,2.41.92.96,0,1.79-.39,2.4-1.05.61-.61.96-1.49.96-2.4,0-.96-.44-1.79-1.05-2.41-.66-.61-1.49-1.01-2.45-.96Zm1.09,3.41c0,.26-.09.53-.26.7-.17.22-.44.35-.74.35-.26,0-.53-.13-.74-.31-.18-.17-.31-.44-.31-.7,0-.31.13-.57.31-.74.17-.22.44-.31.7-.35.31,0,.57.13.74.31.18.17.31.44.31.74Z"/>
    <path class="cls-3" d="m160.56,373.36c-.61-.57-1.36-.96-2.14-1.18l-.39-19.02,5.6-11.76-7.83,10.84-.17.66.39,19.33c-.79.26-1.53.7-2.1,1.27-.83.88-1.31,2.06-1.31,3.37.04,1.27.57,2.45,1.44,3.28.87.83,2.06,1.31,3.37,1.31,1.27-.04,2.45-.57,3.28-1.44.83-.87,1.31-2.06,1.31-3.37-.04-1.27-.57-2.45-1.44-3.28Zm-1.57,4.99c-.44.44-1.01.7-1.62.7-.66,0-1.22-.22-1.66-.66-.44-.39-.7-.96-.7-1.57,0-.66.22-1.22.61-1.66.44-.44,1.01-.7,1.62-.7.66,0,1.22.22,1.66.61.44.44.7,1.01.7,1.62,0,.66-.22,1.22-.61,1.66Z"/>
    <path class="cls-1" d="m204.95,354.42c.92.05,1.79-.35,2.45-.92.61-.61,1-1.49,1.05-2.41,0-.96-.35-1.84-.96-2.45-.61-.66-1.44-1.05-2.41-1.05-.92-.04-1.79.35-2.45.96-.61.61-1.01,1.44-1.05,2.41,0,.92.35,1.79.96,2.4.61.66,1.44,1.05,2.4,1.05Zm-.66-4.15c.17-.17.44-.31.74-.31.26.04.53.13.7.35.22.17.31.44.31.74,0,.26-.13.52-.31.7s-.44.31-.74.31-.52-.13-.74-.35c-.17-.17-.26-.44-.26-.7,0-.31.13-.57.31-.74Z"/>
    <path class="cls-4" d="m213.26,291.45c0,1.4,1.14,2.54,2.54,2.54s2.54-1.14,2.54-2.54-1.14-2.54-2.54-2.54-2.54,1.14-2.54,2.54Z"/>
    <path class="cls-14" d="m135.28,291.45c0-1.4-1.14-2.54-2.54-2.54s-2.49,1.14-2.49,2.54,1.09,2.54,2.49,2.54,2.54-1.14,2.54-2.54Z"/>
    <path class="cls-2" d="m115.99,284.72c0-.7-.53-1.27-1.22-1.27s-1.27.57-1.27,1.27.57,1.27,1.27,1.27,1.22-.57,1.22-1.27Z"/>
    <path class="cls-11" d="m228.43,279.03c-.7,0-1.27.57-1.27,1.22,0,.7.57,1.27,1.27,1.27s1.27-.57,1.27-1.27c0-.66-.57-1.22-1.27-1.22Z"/>
  </g>
  <g>
    <path class="cls-6" d="m328.48,355.55h-2.18c.09-1.03-.14-1.88-.7-2.54-.55-.66-1.36-.99-2.43-.99-2.35,0-3.52,1.15-3.52,3.45,0,1.29.62,2.16,1.87,2.63l3.12,1.16c1.79.65,2.99,1.37,3.6,2.16.54.69.81,1.7.81,3.04,0,1.82-.54,3.24-1.63,4.26-1.09,1.02-2.58,1.53-4.49,1.53-2.68,0-4.47-1.02-5.38-3.06-.23-.53-.37-1.71-.42-3.53h2.18c-.05,1.58.15,2.71.6,3.4.54.84,1.58,1.26,3.13,1.26,1.14,0,2.05-.29,2.73-.86.68-.58,1.02-1.41,1.02-2.51,0-1.3-.29-2.2-.87-2.68-.21-.17-.99-.51-2.34-1.03-.93-.33-2.21-.82-3.86-1.49-1.56-.79-2.34-2.25-2.34-4.38,0-1.58.51-2.85,1.54-3.82s2.34-1.46,3.95-1.46c1.84,0,3.26.46,4.25,1.39s1.44,2.28,1.34,4.07Z"/>
    <path class="cls-6" d="m340.04,369.79h-2.18v-19.31h2.18v19.31Z"/>
    <path class="cls-6" d="m358.16,365.51l3.91-15.04h3.83v19.31h-2.18v-18.36c-.19.96-.4,1.83-.61,2.6l-4.14,15.76h-2.61l-4.14-15.99c-.11-.45-.3-1.24-.58-2.37v18.36h-2.18v-19.31h3.86l3.86,15.06c.17.69.32,1.64.42,2.86h.05c.09-.65.25-1.61.5-2.88Z"/>
    <path class="cls-6" d="m377.22,369.79h-2.18v-19.31h5.17c2.15,0,3.69.42,4.6,1.26,1.07,1,1.6,2.37,1.6,4.12,0,2.64-.93,4.37-2.78,5.18-.88.38-2.57.57-5.09.57h-1.31v8.19Zm0-17.38v7.26h2.13c1.68,0,2.85-.21,3.52-.64.86-.53,1.29-1.57,1.29-3.12,0-1.42-.45-2.39-1.34-2.91-.67-.39-1.78-.59-3.33-.59h-2.26Z"/>
    <path class="cls-6" d="m404.67,369.79h-10.22v-19.31h2.18v17.38h8.04v1.93Z"/>
    <path class="cls-6" d="m415.04,369.79h-2.18v-19.31h2.18v19.31Z"/>
    <path class="cls-6" d="m426.6,369.79h-2.18v-19.31h9.24v1.93h-7.06v6.33h6.57v1.93h-6.57v9.12Z"/>
    <path class="cls-6" d="m443.77,369.79h-2.18v-19.31h2.18v19.31Z"/>
    <path class="cls-6" d="m463.05,369.79h-9.9v-19.31h9.85v1.93h-7.67v6.39h7.2v1.93h-7.2v7.13h7.72v1.93Z"/>
    <path class="cls-6" d="m477.18,369.79h-5.8v-19.31h5.41c2.78,0,4.71,1.01,5.78,3.04.8,1.51,1.16,3.72,1.05,6.62-.1,2.9-.53,5.1-1.29,6.59-1.03,2.04-2.75,3.06-5.15,3.06Zm-3.62-17.38v15.45h3.49c1.61,0,2.76-.64,3.44-1.91.68-1.27.97-3.34.87-6.21-.09-2.49-.39-4.26-.89-5.33-.65-1.34-1.79-2.01-3.41-2.01h-3.49Z"/>
    <path class="cls-6" d="m506.36,369.79h-2.18v-19.31h2.18v19.31Z"/>
    <path class="cls-6" d="m525.64,366.23v-15.76h2.18v19.31h-3.57l-5.51-15.45c-.33-.93-.58-1.9-.74-2.91v18.36h-2.18v-19.31h3.53l5.56,15.81c.26.72.49,1.42.68,2.11h.05v-2.16Z"/>
    <path class="cls-6" d="m547.41,355.55h-2.18c.09-1.03-.14-1.88-.7-2.54-.55-.66-1.36-.99-2.43-.99-2.35,0-3.52,1.15-3.52,3.45,0,1.29.62,2.16,1.87,2.63l3.12,1.16c1.79.65,2.99,1.37,3.6,2.16.54.69.81,1.7.81,3.04,0,1.82-.54,3.24-1.63,4.26-1.09,1.02-2.58,1.53-4.49,1.53-2.68,0-4.47-1.02-5.38-3.06-.23-.53-.37-1.71-.42-3.53h2.18c-.05,1.58.15,2.71.6,3.4.54.84,1.58,1.26,3.13,1.26,1.14,0,2.05-.29,2.73-.86.68-.58,1.02-1.41,1.02-2.51,0-1.3-.29-2.2-.87-2.68-.21-.17-.99-.51-2.34-1.03-.93-.33-2.21-.82-3.86-1.49-1.56-.79-2.34-2.25-2.34-4.38,0-1.58.51-2.85,1.54-3.82s2.34-1.46,3.95-1.46c1.84,0,3.26.46,4.25,1.39s1.44,2.28,1.34,4.07Z"/>
    <path class="cls-6" d="m556.34,365.13v-14.65h2.18v13.88c0,2.64,1.24,3.96,3.73,3.96s3.73-1.32,3.73-3.96v-13.88h2.18v14.65c0,1.68-.53,2.96-1.58,3.82-1.05.87-2.5,1.3-4.33,1.3s-3.27-.42-4.28-1.26c-1.09-.89-1.63-2.18-1.63-3.86Z"/>
    <path class="cls-6" d="m579.58,361.29v8.5h-2.18v-19.31h5.07c2.26,0,3.9.36,4.91,1.08,1.21.86,1.78,2.33,1.71,4.43-.04,1.13-.39,2.08-1.06,2.83-.67.76-1.58,1.21-2.72,1.37v.05c1.26.12,2.13.42,2.6.91s.77,1.39.89,2.69c.07.96.21,2.4.42,4.3.12.81.38,1.21.76,1.21v.44h-2.55c-.46-1.18-.68-2.82-.68-4.92,0-2.39-1.12-3.58-3.36-3.58h-3.81Zm0-8.88v6.95h3.44c2.57,0,3.84-1.18,3.81-3.55-.02-1.44-.53-2.42-1.55-2.93-.6-.31-1.47-.46-2.63-.46h-3.07Z"/>
    <path class="cls-6" d="m596.36,369.79l5.62-19.31h2.89l5.54,19.31h-2.42l-1.55-5.56h-6.22l-1.44,5.56h-2.42Zm9.59-7.49l-2.55-10.27h-.05l-2.6,10.27h5.2Z"/>
    <path class="cls-6" d="m627.4,366.23v-15.76h2.18v19.31h-3.57l-5.51-15.45c-.33-.93-.58-1.9-.74-2.91v18.36h-2.18v-19.31h3.53l5.56,15.81c.26.72.49,1.42.68,2.11h.05v-2.16Z"/>
    <path class="cls-6" d="m649.7,356.27h-2.18c-.07-2.83-1.25-4.25-3.54-4.25-1.63,0-2.73.99-3.31,2.96-.3,1.03-.47,2.65-.53,4.87-.05,2.28.08,4.03.39,5.23.56,2.16,1.71,3.24,3.44,3.24,1.17,0,2.03-.44,2.57-1.31.4-.62.68-1.58.84-2.88.03-.29.08-.73.13-1.31h2.18c-.02.26-.05.65-.1,1.18-.11,1.06-.19,1.78-.26,2.14-.18.72-.47,1.37-.89,1.96-1.03,1.44-2.46,2.16-4.28,2.16-2.68,0-4.48-1.15-5.41-3.45-.58-1.42-.87-3.72-.87-6.9,0-2.85.34-5.03,1.02-6.54,1-2.18,2.74-3.27,5.23-3.27,1.8,0,3.21.6,4.23,1.8.95,1.13,1.39,2.59,1.34,4.38Z"/>
    <path class="cls-6" d="m667.82,369.79h-9.9v-19.31h9.85v1.93h-7.67v6.39h7.2v1.93h-7.2v7.13h7.72v1.93Z"/>
    <path class="cls-6" d="m692.74,369.79h-5.2v-19.31h5.62c3.22,0,4.89,1.6,5.02,4.79.04,1.12-.16,1.99-.58,2.63-.46.7-1.24,1.25-2.36,1.62v.05c2.26.27,3.4,1.79,3.41,4.53.04,3.79-1.93,5.69-5.91,5.69Zm-3.02-17.38v6.33h1.94c1.49,0,2.52-.18,3.1-.54.72-.46,1.08-1.38,1.08-2.75,0-1.2-.29-2.01-.87-2.42-.58-.41-1.69-.62-3.33-.62h-1.92Zm0,15.45h3.44c1.17,0,2-.28,2.49-.85.49-.57.74-1.49.74-2.78,0-1.67-.51-2.74-1.52-3.22-.51-.22-1.58-.33-3.2-.33h-1.94v7.18Z"/>
    <path class="cls-6" d="m707.06,365.13v-14.65h2.18v13.88c0,2.64,1.24,3.96,3.73,3.96s3.73-1.32,3.73-3.96v-13.88h2.18v14.65c0,1.68-.53,2.96-1.58,3.82-1.05.87-2.5,1.3-4.33,1.3s-3.27-.42-4.28-1.26c-1.09-.89-1.63-2.18-1.63-3.86Z"/>
    <path class="cls-6" d="m738.55,355.55h-2.18c.09-1.03-.14-1.88-.7-2.54-.55-.66-1.36-.99-2.43-.99-2.35,0-3.52,1.15-3.52,3.45,0,1.29.62,2.16,1.87,2.63l3.12,1.16c1.79.65,2.99,1.37,3.6,2.16.54.69.81,1.7.81,3.04,0,1.82-.54,3.24-1.63,4.26-1.09,1.02-2.58,1.53-4.49,1.53-2.68,0-4.47-1.02-5.38-3.06-.23-.53-.37-1.71-.42-3.53h2.18c-.05,1.58.15,2.71.6,3.4.54.84,1.58,1.26,3.13,1.26,1.14,0,2.05-.29,2.73-.86.68-.58,1.02-1.41,1.02-2.51,0-1.3-.29-2.2-.87-2.68-.21-.17-.99-.51-2.34-1.03-.93-.33-2.21-.82-3.86-1.49-1.56-.79-2.34-2.25-2.34-4.38,0-1.58.51-2.85,1.54-3.82s2.34-1.46,3.95-1.46c1.84,0,3.26.46,4.25,1.39s1.44,2.28,1.34,4.07Z"/>
    <path class="cls-6" d="m750.1,369.79h-2.18v-19.31h2.18v19.31Z"/>
    <path class="cls-6" d="m769.38,366.23v-15.76h2.18v19.31h-3.57l-5.51-15.45c-.33-.93-.58-1.9-.74-2.91v18.36h-2.18v-19.31h3.53l5.56,15.81c.26.72.49,1.42.68,2.11h.05v-2.16Z"/>
    <path class="cls-6" d="m790.31,369.79h-9.9v-19.31h9.85v1.93h-7.67v6.39h7.2v1.93h-7.2v7.13h7.72v1.93Z"/>
    <path class="cls-6" d="m809.17,355.55h-2.18c.09-1.03-.14-1.88-.7-2.54-.55-.66-1.36-.99-2.43-.99-2.35,0-3.52,1.15-3.52,3.45,0,1.29.62,2.16,1.87,2.63l3.12,1.16c1.79.65,2.99,1.37,3.6,2.16.54.69.81,1.7.81,3.04,0,1.82-.54,3.24-1.63,4.26-1.09,1.02-2.58,1.53-4.49,1.53-2.68,0-4.47-1.02-5.38-3.06-.23-.53-.37-1.71-.42-3.53h2.18c-.05,1.58.15,2.71.6,3.4.54.84,1.58,1.26,3.13,1.26,1.14,0,2.05-.29,2.73-.86.68-.58,1.02-1.41,1.02-2.51,0-1.3-.29-2.2-.87-2.68-.21-.17-.99-.51-2.34-1.03-.93-.33-2.21-.82-3.86-1.49-1.56-.79-2.34-2.25-2.34-4.38,0-1.58.51-2.85,1.54-3.82s2.34-1.46,3.95-1.46c1.84,0,3.26.46,4.25,1.39s1.44,2.28,1.34,4.07Z"/>
    <path class="cls-6" d="m828.65,355.55h-2.18c.09-1.03-.14-1.88-.7-2.54-.55-.66-1.36-.99-2.43-.99-2.35,0-3.52,1.15-3.52,3.45,0,1.29.62,2.16,1.87,2.63l3.12,1.16c1.79.65,2.99,1.37,3.6,2.16.54.69.81,1.7.81,3.04,0,1.82-.54,3.24-1.63,4.26-1.09,1.02-2.58,1.53-4.49,1.53-2.68,0-4.47-1.02-5.38-3.06-.23-.53-.37-1.71-.42-3.53h2.18c-.05,1.58.15,2.71.6,3.4.54.84,1.58,1.26,3.13,1.26,1.14,0,2.05-.29,2.73-.86.68-.58,1.02-1.41,1.02-2.51,0-1.3-.29-2.2-.87-2.68-.21-.17-.99-.51-2.34-1.03-.93-.33-2.21-.82-3.86-1.49-1.56-.79-2.34-2.25-2.34-4.38,0-1.58.51-2.85,1.54-3.82s2.34-1.46,3.95-1.46c1.84,0,3.26.46,4.25,1.39s1.44,2.28,1.34,4.07Z"/>
    <path class="cls-6" d="m847.2,369.79l5.62-19.31h2.89l5.54,19.31h-2.42l-1.55-5.56h-6.22l-1.44,5.56h-2.42Zm9.59-7.49l-2.55-10.27h-.05l-2.6,10.27h5.2Z"/>
    <path class="cls-6" d="m870.83,369.79h-2.18v-19.31h5.17c2.15,0,3.69.42,4.6,1.26,1.07,1,1.6,2.37,1.6,4.12,0,2.64-.93,4.37-2.78,5.18-.88.38-2.57.57-5.09.57h-1.31v8.19Zm0-17.38v7.26h2.13c1.68,0,2.85-.21,3.52-.64.86-.53,1.29-1.57,1.29-3.12,0-1.42-.45-2.39-1.34-2.91-.67-.39-1.78-.59-3.33-.59h-2.26Z"/>
    <path class="cls-6" d="m890.32,369.79h-2.18v-19.31h5.17c2.15,0,3.69.42,4.6,1.26,1.07,1,1.6,2.37,1.6,4.12,0,2.64-.93,4.37-2.78,5.18-.88.38-2.57.57-5.09.57h-1.31v8.19Zm0-17.38v7.26h2.13c1.68,0,2.85-.21,3.52-.64.86-.53,1.29-1.57,1.29-3.12,0-1.42-.45-2.39-1.34-2.91-.67-.39-1.78-.59-3.33-.59h-2.26Z"/>
    <path class="cls-6" d="m917.76,369.79h-10.22v-19.31h2.18v17.38h8.04v1.93Z"/>
    <path class="cls-6" d="m928.14,369.79h-2.18v-19.31h2.18v19.31Z"/>
    <path class="cls-6" d="m948.78,356.27h-2.18c-.07-2.83-1.25-4.25-3.54-4.25-1.63,0-2.73.99-3.31,2.96-.3,1.03-.47,2.65-.53,4.87-.05,2.28.08,4.03.39,5.23.56,2.16,1.71,3.24,3.44,3.24,1.17,0,2.03-.44,2.57-1.31.4-.62.68-1.58.84-2.88.03-.29.08-.73.13-1.31h2.18c-.02.26-.05.65-.1,1.18-.11,1.06-.19,1.78-.26,2.14-.18.72-.47,1.37-.89,1.96-1.03,1.44-2.46,2.16-4.28,2.16-2.68,0-4.48-1.15-5.41-3.45-.58-1.42-.87-3.72-.87-6.9,0-2.85.34-5.03,1.02-6.54,1-2.18,2.74-3.27,5.23-3.27,1.8,0,3.21.6,4.23,1.8.95,1.13,1.39,2.59,1.34,4.38Z"/>
    <path class="cls-6" d="m955.35,369.79l5.62-19.31h2.89l5.54,19.31h-2.42l-1.55-5.56h-6.22l-1.44,5.56h-2.42Zm9.59-7.49l-2.55-10.27h-.05l-2.6,10.27h5.2Z"/>
    <path class="cls-6" d="m974.94,352.41v-1.93h12.37v1.93h-5.09v17.38h-2.18v-17.38h-5.1Z"/>
    <path class="cls-6" d="m997.31,369.79h-2.18v-19.31h2.18v19.31Z"/>
    <path class="cls-6" d="m1006.3,359.72c-.02-2.83.34-5,1.08-6.49,1.02-2.09,2.84-3.14,5.46-3.14s4.37,1.05,5.38,3.14c.72,1.49,1.07,3.66,1.05,6.49-.02,3.3-.39,5.72-1.1,7.26-1,2.18-2.79,3.27-5.38,3.27s-4.39-1.09-5.38-3.27c-.72-1.54-1.09-3.96-1.1-7.26Zm10.71.05c.04-5.17-1.39-7.75-4.28-7.75s-4.21,2.58-4.18,7.75c.02,3.06.27,5.17.76,6.36.61,1.46,1.77,2.19,3.47,2.19s2.85-.73,3.47-2.19c.49-1.18.74-3.3.76-6.36Z"/>
    <path class="cls-6" d="m1037.52,366.23v-15.76h2.18v19.31h-3.57l-5.51-15.45c-.33-.93-.58-1.9-.74-2.91v18.36h-2.18v-19.31h3.53l5.56,15.81c.26.72.49,1.42.68,2.11h.05v-2.16Z"/>
  </g>
  <g>
    <path class="cls-8" d="m420.97,288.5c.38.39.58.81.58,1.27v19.57c0,.46-.19.89-.58,1.27l-14.24,14.24c-.39.39-.85.58-1.39.58h-86.5c-.23,0-.42-.08-.58-.23-.16-.15-.23-.35-.23-.58v-9.96c0-.08.08-.27.23-.58.08-.08.27-.12.58-.12h67.4c.39,0,.85-.19,1.39-.58.39-.39.87-.89,1.45-1.51.58-.62,1.18-1.23,1.79-1.85.62-.62,1.23-1.23,1.85-1.85.62-.62,1.08-1.08,1.39-1.39.38-.38.58-.85.58-1.39v-8.34c0-.23-.08-.42-.23-.58l-3.01-3.01c-.39-.39-.85-.58-1.39-.58h-67.4c-.54,0-1-.19-1.39-.58-.31-.39-.77-.87-1.39-1.45-.62-.58-1.24-1.18-1.85-1.79-.62-.62-1.22-1.23-1.79-1.85-.58-.62-1.06-1.12-1.45-1.51-.39-.39-.58-.81-.58-1.27v-19.57c0-.46.19-.89.58-1.27l14.24-14.24c.39-.39.81-.58,1.27-.58h86.62c.46,0,.7.27.7.81v9.96c0,.46-.23.69-.7.69h-67.4c-.54,0-1,.19-1.39.58-.31.31-.77.77-1.39,1.39-.62.62-1.24,1.26-1.85,1.91-.62.66-1.24,1.27-1.85,1.85-.62.58-1.12,1.06-1.51,1.45-.31.31-.46.73-.46,1.27,0,.46-.02,1.06-.06,1.79-.04.73-.06,1.49-.06,2.26v3.94c0,.54.19,1,.58,1.39.39.39.85.85,1.39,1.39.54.54,1,1,1.39,1.39.39.39.81.58,1.27.58h19.11c4.63,0,9.51-.02,14.65-.06,5.13-.04,10.02-.06,14.65-.06h19.11c.46,0,.89.19,1.27.58.39.39.87.89,1.45,1.51.58.62,1.18,1.24,1.79,1.85.62.62,1.23,1.22,1.85,1.79.62.58,1.12,1.06,1.51,1.45Z"/>
    <path class="cls-8" d="m512.56,260.48c-.16.31-.23.5-.23.58v52.11c0,.23.08.43.23.58.15.16.35.23.58.23h17.6c.54,0,.81.23.81.7v9.96c0,.23-.08.42-.23.58-.31.16-.5.23-.58.23h-63.58c-.23,0-.42-.08-.58-.23-.16-.15-.23-.35-.23-.58v-9.96c0-.15.08-.31.23-.46.08-.15.27-.23.58-.23h17.6c.08,0,.27-.08.58-.23.08-.08.12-.27.12-.58v-52.11c0-.23-.04-.42-.12-.58-.31-.15-.5-.23-.58-.23h-17.6c-.54,0-.81-.23-.81-.69v-9.96c0-.54.27-.81.81-.81h63.58c.08,0,.27.08.58.23.15.16.23.35.23.58v9.96c0,.46-.27.69-.81.69h-17.6c-.23,0-.43.08-.58.23Z"/>
    <path class="cls-8" d="m720.2,271.6c.15.16.23.31.23.46v49.1c0,.31-.12.58-.35.81l-3.13,3.13c-.23.23-.5.35-.81.35h-21.66c-.54,0-.81-.27-.81-.81v-52.57c0-.15-.08-.31-.23-.46l-10.77-10.77c-.39-.39-.85-.58-1.39-.58h-17.72c-.46,0-.7.27-.7.81v18.01c0,4.36.02,8.96.06,13.78.04,4.83.06,9.42.06,13.78v18.01c0,.23-.08.42-.23.58-.16.16-.35.23-.58.23h-25.36c-.16,0-.31-.08-.46-.23-.16-.08-.23-.27-.23-.58v-63.58c0-.54-.23-.81-.69-.81h-18.18c-.31,0-.58.12-.81.35-.39.39-1.08,1.1-2.08,2.14-1,1.04-2.08,2.14-3.24,3.3-1.16,1.16-2.24,2.24-3.24,3.24-1,1-1.7,1.74-2.08,2.2-.23.23-.35.5-.35.81v52.34c0,.54-.23.81-.69.81h-21.89c-.31,0-.58-.12-.81-.35-.39-.38-.89-.91-1.51-1.56-.62-.65-1.12-1.18-1.5-1.56-.23-.23-.35-.5-.35-.81v-48.87c0-.46.12-.73.35-.81.46-.46,1.25-1.27,2.37-2.43,1.12-1.16,2.43-2.49,3.94-4,1.51-1.51,3.09-3.09,4.75-4.75,1.66-1.66,3.24-3.24,4.75-4.75,1.51-1.51,2.82-2.84,3.94-4,1.12-1.16,1.91-1.97,2.37-2.43.23-.23.54-.35.93-.35h39.49c.08,0,.27.08.58.23l7.18,7.18c.08.08.15.12.23.12l.23-.12,6.83-6.83c.39-.39.85-.58,1.39-.58h38.68c.46,0,.89.19,1.27.58.54.54,1.43,1.41,2.66,2.61,1.23,1.2,2.62,2.57,4.17,4.11,1.54,1.55,3.14,3.15,4.81,4.81,1.66,1.66,3.22,3.22,4.69,4.69,1.47,1.47,2.72,2.74,3.76,3.82,1.04,1.08,1.75,1.81,2.14,2.2Z"/>
    <path class="cls-8" d="m882.09,294.18c.38.54.58,1,.58,1.39v21.42c0,.46-.19.89-.58,1.27l-1.39,1.39c-.62.62-1.24,1.26-1.85,1.91-.62.66-1.22,1.27-1.8,1.85-.58.58-1.06,1.06-1.45,1.45-.39.39-.85.58-1.39.58h-98.08c-.54,0-1-.19-1.39-.58l-2.89-2.89c-.23-.23-.35-.5-.35-.81v-67.74c0-.46.19-.89.58-1.27.39-.39.83-.85,1.33-1.39.5-.54.94-1,1.33-1.39.39-.39.85-.58,1.39-.58h78.86c.54,0,1,.19,1.39.58l21.89,21.89c.38.39.58.85.58,1.39v9.84c0,.62-.19,1.08-.58,1.39l-2.66,2.66c-.16.16-.23.35-.23.58,0,.31.08.5.23.58l6.49,6.48Zm-83.72-13.55c0,.46.27.69.81.69h48.29c.54,0,1-.15,1.39-.46.39-.39.83-.85,1.33-1.39.5-.54.94-1,1.33-1.39.39-.39.58-.85.58-1.39s-.02-1.22-.06-2.03c-.04-.81-.06-1.52-.06-2.14,0-.46-.19-.89-.58-1.27-.46-.46-1.18-1.18-2.14-2.14-.97-.96-1.97-1.99-3.01-3.07-1.04-1.08-2.05-2.1-3.01-3.07-.97-.96-1.68-1.68-2.14-2.14-.54-.39-1-.58-1.39-.58h-40.53c-.54,0-.81.27-.81.81v19.57Zm57.44,16.91c0-.62-.16-1.08-.46-1.39-.39-.39-.85-.83-1.39-1.33-.54-.5-1-.94-1.39-1.33-.31-.39-.74-.58-1.27-.58h-52.11c-.54,0-.81.23-.81.69v19.57c0,.54.27.81.81.81h52.11c.46,0,.89-.19,1.27-.58.38-.39.85-.83,1.39-1.33.54-.5,1-.94,1.39-1.33.31-.38.46-.85.46-1.39v-11.81Z"/>
    <path class="cls-8" d="m1039.35,252.37c.15.31.23.5.23.58v67.86c0,.39-.19.85-.58,1.39-.39.39-.85.83-1.39,1.33-.54.5-1,.95-1.39,1.33-.39.39-.85.58-1.39.58h-21.31c-.23,0-.42-.08-.58-.23-.16-.15-.23-.35-.23-.58v-25.24c0-.54-.27-.81-.81-.81h-52.23c-.54,0-.81.27-.81.81v25.24c0,.54-.27.81-.81.81h-21.31c-.54,0-1-.19-1.39-.58l-2.66-2.66c-.39-.39-.58-.85-.58-1.39v-48.17c0-.54.19-1,.58-1.39.54-.54,1.37-1.37,2.49-2.49,1.12-1.12,2.39-2.41,3.82-3.88,1.43-1.47,2.95-2.99,4.57-4.57,1.62-1.58,3.14-3.11,4.57-4.57,1.43-1.47,2.72-2.76,3.88-3.88,1.16-1.12,2.01-1.95,2.55-2.49.38-.39.81-.58,1.27-.58h79.44c.15,0,.31.08.46.23.39.39.98.95,1.79,1.68.81.73,1.41,1.29,1.79,1.68Zm-26.63,8.69c0-.23-.08-.42-.23-.58-.16-.15-.35-.23-.58-.23h-40.65c-.54,0-1,.19-1.39.58l-10.42,10.42c-.31.31-.46.77-.46,1.39v2.84c0,1.27-.02,2.61-.06,4-.04,1.39-.06,2.72-.06,4v2.84c0,.23.08.43.23.58.31.16.5.23.58.23h52.23c.23,0,.42-.08.58-.23.15-.15.23-.35.23-.58v-25.24Z"/>
  </g>
</svg>